<?xml version="1.0" encoding="UTF-8"?>
<svg xmlns="http://www.w3.org/2000/svg" xmlns:xlink="http://www.w3.org/1999/xlink" viewBox="0 0 651.97 311.81">
  <defs>
    <style>
      .cls-1 {
        fill: none;
      }

      .cls-2 {
        clip-path: url(#clippath-1);
      }

      .cls-3 {
        fill: #fff;
      }

      .cls-4 {
        opacity: .3;
      }

      .cls-5 {
        fill: #f2c622;
      }

      .cls-6 {
        fill: #092f54;
      }

      .cls-7 {
        clip-path: url(#clippath);
      }
    </style>
    <clipPath id="clippath">
      <rect class="cls-1" x="-724.18" width="651.97" height="311.81"/>
    </clipPath>
    <clipPath id="clippath-1">
      <rect class="cls-1" y="0" width="651.97" height="311.81"/>
    </clipPath>
  </defs>
  <g id="Layer_1" data-name="Layer 1">
    <g class="cls-7">
      <g class="cls-4">
        <rect class="cls-1" x="-325.22" y="32.13" width="345.6" height="376.58"/>
      </g>
    </g>
  </g>
  <g id="Layer_2" data-name="Layer 2">
    <g class="cls-2">
      <g>
        <rect class="cls-3" y="0" width="651.97" height="311.81"/>
        <g>
          <path class="cls-6" d="M0-.34h651.97l-26.59,100.77c-.99,3.76-4.4,6.39-8.29,6.39H36.08c-3.86,0-7.24-2.58-8.27-6.3L0-.34h0Z"/>
          <g>
            <g id="daun">
              <path class="cls-5" d="M621.07,29.51c-2.82-6.11-7.31-11.3-12.88-14.98-5.57,3.68-10.07,8.87-12.89,15-2.11,4.58-3.29,9.68-3.29,15.06,0,11.38,5.28,21.52,13.51,28.12.85.68,1.74,1.33,2.66,1.94.91-.6,1.79-1.24,2.63-1.91,8.26-6.6,13.54-16.75,13.54-28.14,0-5.39-1.18-10.49-3.3-15.07ZM608.16,69.55c-3.05-4.29-4.85-9.54-4.85-15.2,0-5.67,1.8-10.91,4.85-15.2,3.05,4.29,4.85,9.54,4.85,15.2s-1.8,10.91-4.85,15.2Z"/>
            </g>
            <g id="daun-2" data-name="daun">
              <path class="cls-5" d="M562.26,74.6c-4.84,2.24-8.95,5.79-11.86,10.2,2.92,4.41,7.03,7.97,11.88,10.21,3.63,1.67,7.67,2.61,11.93,2.61,9.01,0,17.04-4.18,22.27-10.7.54-.68,1.06-1.38,1.53-2.11-.47-.72-.98-1.42-1.52-2.09-5.22-6.54-13.27-10.73-22.29-10.73-4.27,0-8.31.94-11.94,2.61ZM593.97,84.82c-3.4,2.42-7.55,3.84-12.04,3.84s-8.64-1.42-12.04-3.84c3.4-2.42,7.55-3.84,12.04-3.84s8.64,1.42,12.04,3.84Z"/>
            </g>
            <path class="cls-5" d="M608.19,78.28c-3.59,0-6.51,2.91-6.51,6.51s2.91,6.51,6.51,6.51,6.51-2.91,6.51-6.51-2.91-6.51-6.51-6.51ZM608.19,88.63c-2.12,0-3.84-1.72-3.84-3.84s1.72-3.84,3.84-3.84,3.84,1.72,3.84,3.84-1.72,3.84-3.84,3.84Z"/>
          </g>
          <g>
            <g id="daun-3" data-name="daun">
              <path class="cls-5" d="M30.9,29.51c2.82-6.11,7.31-11.3,12.88-14.98,5.57,3.68,10.07,8.87,12.89,15,2.11,4.58,3.29,9.68,3.29,15.06,0,11.38-5.28,21.52-13.51,28.12-.85.68-1.74,1.33-2.66,1.94-.91-.6-1.79-1.24-2.63-1.91-8.26-6.6-13.54-16.75-13.54-28.14,0-5.39,1.18-10.49,3.3-15.07ZM43.8,69.55c3.05-4.29,4.85-9.54,4.85-15.2,0-5.67-1.8-10.91-4.85-15.2-3.05,4.29-4.85,9.54-4.85,15.2s1.8,10.91,4.85,15.2Z"/>
            </g>
            <g id="daun-4" data-name="daun">
              <path class="cls-5" d="M89.71,74.6c4.84,2.24,8.95,5.79,11.86,10.2-2.92,4.41-7.03,7.97-11.88,10.21-3.63,1.67-7.67,2.61-11.93,2.61-9.01,0-17.04-4.18-22.27-10.7-.54-.68-1.06-1.38-1.53-2.11.47-.72.98-1.42,1.52-2.09,5.22-6.54,13.27-10.73,22.29-10.73,4.27,0,8.31.94,11.94,2.61ZM57.99,84.82c3.4,2.42,7.55,3.84,12.04,3.84s8.64-1.42,12.04-3.84c-3.4-2.42-7.55-3.84-12.04-3.84s-8.64,1.42-12.04,3.84Z"/>
            </g>
            <path class="cls-5" d="M43.78,78.28c3.59,0,6.51,2.91,6.51,6.51s-2.91,6.51-6.51,6.51-6.51-2.91-6.51-6.51,2.91-6.51,6.51-6.51ZM43.78,88.63c2.12,0,3.84-1.72,3.84-3.84s-1.72-3.84-3.84-3.84-3.84,1.72-3.84,3.84,1.72,3.84,3.84,3.84Z"/>
          </g>
        </g>
      </g>
    </g>
  </g>
</svg>