<?xml version="1.0" encoding="UTF-8"?>
<svg id="Layer_1" data-name="Layer 1" xmlns="http://www.w3.org/2000/svg" xmlns:xlink="http://www.w3.org/1999/xlink" viewBox="0 0 651.97 311.81">
  <defs>
    <style>
      .cls-1, .cls-2, .cls-3 {
        fill: none;
      }

      .cls-2 {
        stroke-miterlimit: 10;
      }

      .cls-2, .cls-3 {
        stroke: #231f20;
      }

      .cls-4 {
        fill: #231f20;
      }

      .cls-5, .cls-6 {
        font-size: 9px;
      }

      .cls-7 {
        font-family: OpenSans-SemiBold, 'Open Sans';
        font-weight: 600;
      }

      .cls-7, .cls-8 {
        font-size: 12px;
      }

      .cls-9 {
        fill: #fff;
      }

      .cls-10, .cls-6 {
        font-family: OpenSans-Regular, 'Open Sans';
      }

      .cls-3 {
        stroke-linecap: round;
        stroke-linejoin: round;
        stroke-width: 1.5px;
      }

      .cls-11 {
        opacity: .3;
      }

      .cls-12 {
        fill: #f2c622;
      }

      .cls-13 {
        clip-path: url(#clippath);
      }
    </style>
    <clipPath id="clippath">
      <rect class="cls-1" width="651.97" height="311.81"/>
    </clipPath>
  </defs>
  <g class="cls-13">
    <line class="cls-2" x1="151.9" y1="12.11" x2="151.9" y2="85.27"/>
    <rect class="cls-9" y="0" width="651.97" height="311.81"/>
    <g>
      <g>
        <g>
          <g>
            <path class="cls-12" d="M39.8,61.48v-1.98l2.62-2.62c.15.04.31.06.47.06,1.01,0,1.83-.82,1.83-1.83s-.82-1.83-1.83-1.83-1.83.82-1.83,1.83c0,.16.02.32.06.47l-1.33,1.33v-5.24l2.62-2.62c.15.04.31.06.47.06,1.01,0,1.83-.82,1.83-1.83s-.82-1.83-1.83-1.83-1.83.82-1.83,1.83c0,.16.02.32.06.47l-1.33,1.33v-5.05c-.45-.69-1.08-1.29-1.83-1.73v19.15c0,1.86.69,3.56,1.83,4.86,1.35,1.53,3.32,2.5,5.53,2.5.28,0,.56-.02.83-.05-3.59-.49-6.36-3.57-6.36-7.29ZM42.89,54.2c.51,0,.92.41.92.92s-.41.92-.92.92-.92-.41-.92-.92.41-.92.92-.92ZM42.89,46.37c.51,0,.92.41.92.92s-.41.92-.92.92-.92-.41-.92-.92.41-.92.92-.92Z"/>
            <path class="cls-12" d="M28.13,55.59c.04-.15.06-.31.06-.47,0-1.01-.82-1.83-1.83-1.83s-1.83.82-1.83,1.83.82,1.83,1.83,1.83c.16,0,.32-.02.47-.06l2.62,2.62v1.98c0,3.73-2.77,6.8-6.36,7.29.27.03.55.05.83.05,2.2,0,4.18-.97,5.53-2.5,1.14-1.3,1.83-3,1.83-4.86v-2.71l-3.16-3.16ZM26.36,56.03c-.51,0-.92-.41-.92-.92s.41-.92.92-.92.92.41.92.92-.41.92-.92.92Z"/>
            <path class="cls-12" d="M29.46,44.04v5.05l-1.33-1.33c.04-.15.06-.31.06-.47,0-1.01-.82-1.83-1.83-1.83s-1.83.82-1.83,1.83.82,1.83,1.83,1.83c.16,0,.32-.02.47-.06l2.62,2.62v2.05l1.83,1.83v-13.25c-.76.45-1.39,1.04-1.83,1.73ZM26.36,48.2c-.51,0-.92-.41-.92-.92s.41-.92.92-.92.92.41.92.92-.41.92-.92.92Z"/>
            <path class="cls-12" d="M35.6,61.14c0-.08,0-.16,0-.23v-18.04c.55-.32.92-.91.92-1.59,0-.98-.77-1.78-1.74-1.83-.03,0-.06,0-.09,0-.03,0-.06,0-.09,0-.97.05-1.74.85-1.74,1.83,0,.68.37,1.27.92,1.59v18.04c0,.08,0,.16,0,.23-.12,4.38-3.48,7.96-7.77,8.41.3.03.61.05.92.05,2.79,0,5.27-1.31,6.86-3.35.35-.45.66-.93.91-1.44.26.51.56,1,.91,1.44,1.59,2.04,4.07,3.35,6.86,3.35.31,0,.61-.02.92-.05-4.29-.45-7.66-4.02-7.77-8.41ZM34.64,42.2c-.49-.02-.88-.42-.88-.92s.39-.89.88-.92c.02,0,.03,0,.05,0,.01,0,.03,0,.04,0,.49.02.88.42.88.92s-.39.89-.88.92c-.01,0-.03,0-.04,0-.02,0-.03,0-.05,0Z"/>
          </g>
          <g>
            <g id="daun">
              <path class="cls-12" d="M36.96,30.51c-.51-1.11-1.33-2.05-2.34-2.72-1.01.67-1.83,1.61-2.34,2.73-.38.83-.6,1.76-.6,2.74,0,2.07.96,3.91,2.46,5.11.16.12.32.24.48.35.16-.11.32-.22.48-.35,1.5-1.2,2.46-3.04,2.46-5.11,0-.98-.22-1.91-.6-2.74ZM34.62,37.79c-.56-.78-.88-1.73-.88-2.76s.33-1.98.88-2.76c.56.78.88,1.73.88,2.76s-.33,1.98-.88,2.76Z"/>
            </g>
            <g id="daun-2" data-name="daun">
              <path class="cls-12" d="M43.66,34.43c.91-.34,1.9-.41,2.85-.21.19.95.12,1.94-.22,2.85-.25.68-.65,1.33-1.2,1.88-1.16,1.16-2.74,1.66-4.26,1.49-.16-.02-.31-.04-.47-.07-.03-.15-.06-.31-.07-.47-.17-1.52.33-3.1,1.49-4.26.55-.55,1.19-.95,1.88-1.2ZM40.89,39.84c.75-.13,1.47-.48,2.05-1.06s.93-1.3,1.06-2.05c-.75.13-1.47.48-2.05,1.06s-.93,1.3-1.06,2.05Z"/>
            </g>
            <g id="daun-3" data-name="daun">
              <path class="cls-12" d="M49.45,40.49c.97-.09,1.94.1,2.81.53-.06.96-.38,1.9-.95,2.7-.42.6-.97,1.11-1.65,1.5-1.42.82-3.08.89-4.5.34-.15-.06-.29-.12-.44-.19,0-.16.03-.31.05-.47.23-1.51,1.12-2.91,2.54-3.73.67-.39,1.4-.61,2.13-.68ZM45.36,45c.76.07,1.54-.08,2.25-.49s1.24-1.01,1.55-1.71c-.76-.07-1.54.08-2.25.49s-1.24,1.01-1.55,1.71Z"/>
            </g>
            <g id="daun-4" data-name="daun">
              <path class="cls-12" d="M51,49.4c.96.17,1.85.6,2.57,1.24-.31.92-.86,1.74-1.61,2.36-.56.47-1.23.82-1.98,1.02-1.59.43-3.2.07-4.43-.84-.13-.09-.25-.19-.37-.3.05-.15.11-.3.17-.44.61-1.4,1.83-2.52,3.42-2.95.75-.2,1.51-.23,2.23-.1ZM45.89,52.7c.71.27,1.51.32,2.3.11s1.46-.66,1.94-1.25c-.71-.27-1.51-.32-2.3-.11s-1.46.66-1.94,1.25Z"/>
            </g>
            <g id="daun-5" data-name="daun">
              <path class="cls-12" d="M25.59,34.43c-.91-.34-1.9-.41-2.85-.21-.19.95-.12,1.94.22,2.85.25.68.65,1.33,1.2,1.88,1.16,1.16,2.74,1.66,4.26,1.49.16-.02.31-.04.47-.07.03-.15.06-.31.07-.47.17-1.52-.33-3.1-1.49-4.26-.55-.55-1.19-.95-1.88-1.2ZM28.37,39.84c-.75-.13-1.47-.48-2.05-1.06s-.93-1.3-1.06-2.05c.75.13,1.47.48,2.05,1.06s.93,1.3,1.06,2.05Z"/>
            </g>
            <g id="daun-6" data-name="daun">
              <path class="cls-12" d="M19.81,40.49c-.97-.09-1.94.1-2.81.53.06.96.38,1.9.95,2.7.42.6.97,1.11,1.65,1.5,1.42.82,3.08.89,4.5.34.15-.06.29-.12.44-.19,0-.16-.03-.31-.05-.47-.23-1.51-1.12-2.91-2.54-3.73-.67-.39-1.4-.61-2.13-.68ZM23.89,45c-.76.07-1.54-.08-2.25-.49s-1.24-1.01-1.55-1.71c.76-.07,1.54.08,2.25.49s1.24,1.01,1.55,1.71Z"/>
            </g>
            <g id="daun-7" data-name="daun">
              <path class="cls-12" d="M18.25,49.4c-.96.17-1.85.6-2.57,1.24.31.92.86,1.74,1.61,2.36.56.47,1.23.82,1.98,1.02,1.59.43,3.2.07,4.43-.84.13-.09.25-.19.37-.3-.05-.15-.11-.3-.17-.44-.61-1.4-1.83-2.52-3.42-2.95-.75-.2-1.51-.23-2.23-.1ZM23.36,52.7c-.71.27-1.51.32-2.3.11s-1.46-.66-1.94-1.25c.71-.27,1.51-.32,2.3-.11s1.46.66,1.94,1.25Z"/>
            </g>
          </g>
        </g>
        <g>
          <path class="cls-12" d="M62.68,38.24c-.76,0-1.43-.13-2.01-.4-.58-.27-1.04-.66-1.37-1.18-.33-.52-.5-1.16-.5-1.9v-.36h1.54v.36c0,.71.21,1.24.64,1.59.43.35.99.53,1.7.53s1.26-.15,1.62-.45.55-.69.55-1.17c0-.32-.09-.57-.26-.78-.17-.2-.42-.36-.73-.48s-.69-.23-1.13-.34l-.53-.13c-.64-.15-1.2-.34-1.67-.57-.47-.23-.84-.52-1.1-.9-.26-.37-.39-.85-.39-1.44s.15-1.1.44-1.52c.29-.42.7-.75,1.21-.98s1.12-.34,1.82-.34,1.32.12,1.87.36.98.59,1.3,1.06.47,1.06.47,1.77v.52h-1.54v-.52c0-.43-.09-.78-.27-1.05s-.42-.46-.74-.59c-.32-.12-.68-.19-1.11-.19-.61,0-1.09.13-1.43.38-.34.25-.51.61-.51,1.06,0,.31.07.56.22.75.15.2.37.36.65.48.29.12.65.23,1.08.33l.53.13c.65.14,1.23.33,1.72.55.5.23.89.53,1.18.91.29.38.43.88.43,1.48s-.15,1.13-.45,1.58c-.3.45-.73.8-1.28,1.06-.56.25-1.21.38-1.97.38Z"/>
          <path class="cls-12" d="M71.35,38.24c-.71,0-1.34-.15-1.89-.44-.55-.29-.98-.71-1.3-1.26s-.47-1.19-.47-1.94v-.22c0-.75.16-1.39.47-1.93.32-.54.75-.96,1.3-1.26.55-.3,1.18-.45,1.89-.45s1.34.15,1.9.45.99.72,1.31,1.26c.32.54.47,1.18.47,1.93v.22c0,.75-.16,1.39-.47,1.94s-.75.96-1.31,1.26c-.56.29-1.19.44-1.9.44ZM71.35,36.92c.65,0,1.18-.21,1.59-.62.41-.42.61-.99.61-1.73v-.13c0-.74-.2-1.31-.6-1.73s-.93-.62-1.59-.62-1.17.21-1.57.62c-.41.42-.61.99-.61,1.73v.13c0,.74.2,1.31.61,1.73.41.42.93.62,1.57.62Z"/>
          <path class="cls-12" d="M76.74,38.04v-10.05h1.48v10.05h-1.48Z"/>
          <path class="cls-12" d="M83,38.17c-.54,0-1.01-.12-1.44-.36-.42-.24-.75-.58-.99-1.02-.24-.44-.36-.97-.36-1.58v-4.25h1.48v4.15c0,.61.15,1.06.46,1.36.31.29.73.44,1.28.44.6,0,1.09-.2,1.46-.61.37-.41.55-.99.55-1.76v-3.58h1.48v7.08h-1.45v-1.06h-.23c-.13.29-.37.56-.72.81-.34.25-.85.38-1.52.38Z"/>
          <path class="cls-12" d="M91.84,38.24c-.9,0-1.65-.2-2.24-.6s-.96-1.01-1.09-1.82l1.38-.33c.08.39.21.7.39.93.18.23.41.39.68.49s.57.14.88.14c.47,0,.83-.09,1.08-.27s.38-.42.38-.7-.12-.5-.36-.63c-.24-.13-.59-.24-1.06-.33l-.49-.09c-.48-.09-.91-.21-1.31-.37-.39-.16-.7-.39-.93-.67-.23-.29-.34-.66-.34-1.11,0-.67.25-1.19.75-1.56.5-.37,1.16-.55,1.98-.55s1.45.18,1.96.54c.51.36.84.85,1,1.46l-1.38.39c-.09-.43-.27-.73-.55-.91s-.62-.27-1.03-.27-.72.07-.95.22-.34.36-.34.62c0,.29.11.5.34.63.22.13.53.23.91.3l.5.09c.51.09.97.21,1.39.36.42.15.75.37,1,.66.24.29.37.67.37,1.15,0,.71-.26,1.26-.79,1.65-.53.39-1.23.59-2.13.59Z"/>
          <path class="cls-12" d="M97.1,30c-.29,0-.53-.09-.73-.28-.2-.19-.29-.43-.29-.72s.1-.54.29-.73c.2-.19.44-.28.73-.28s.54.09.73.28c.19.19.29.43.29.73s-.1.54-.29.72c-.19.19-.44.28-.73.28ZM96.35,38.04v-7.08h1.48v7.08h-1.48Z"/>
        </g>
        <g>
          <path class="cls-12" d="M62.79,53.92c-1.23,0-2.2-.35-2.91-1.04-.72-.69-1.08-1.7-1.08-3.01v-2.35c0-1.31.36-2.31,1.08-3.01.72-.69,1.69-1.04,2.91-1.04s2.14.34,2.79,1.01c.66.67.98,1.58.98,2.74v.09h-1.54v-.13c0-.68-.18-1.23-.55-1.67s-.93-.65-1.69-.65-1.36.23-1.79.7-.65,1.11-.65,1.93v2.41c0,.81.22,1.46.65,1.92s1.03.7,1.79.7,1.32-.22,1.69-.65c.37-.44.55-.99.55-1.66v-.24h1.54v.2c0,1.16-.33,2.07-.98,2.74-.66.67-1.59,1-2.79,1Z"/>
          <path class="cls-12" d="M71.52,53.92c-.72,0-1.34-.15-1.88-.45-.54-.3-.96-.73-1.26-1.28s-.45-1.19-.45-1.92v-.17c0-.74.15-1.38.45-1.93.3-.55.71-.98,1.24-1.28s1.15-.45,1.85-.45,1.28.15,1.79.45c.51.3.91.72,1.2,1.26s.43,1.16.43,1.88v.56h-5.44c.02.62.23,1.12.62,1.49s.89.55,1.49.55c.56,0,.97-.12,1.26-.37s.5-.54.65-.86l1.22.63c-.13.27-.33.55-.58.85-.25.3-.59.55-1,.75-.41.2-.94.3-1.58.3ZM69.45,49.45h3.92c-.04-.54-.23-.95-.57-1.26s-.79-.45-1.35-.45-1.01.15-1.36.45-.56.72-.64,1.26Z"/>
          <path class="cls-12" d="M76.55,53.72v-7.08h1.45v.83h.23c.11-.3.3-.51.55-.65s.57-.21.94-.21h.85v1.34h-.9c-.48,0-.87.13-1.18.39-.31.26-.46.67-.46,1.21v4.16h-1.48Z"/>
          <path class="cls-12" d="M84.84,53.92c-.58,0-1.12-.14-1.62-.43s-.9-.7-1.2-1.24c-.3-.54-.45-1.19-.45-1.96v-.22c0-.76.15-1.41.45-1.95.3-.55.69-.96,1.19-1.25s1.04-.43,1.64-.43c.46,0,.84.06,1.16.17.31.11.57.26.77.44s.35.36.46.55h.23v-3.93h1.48v10.05h-1.45v-1h-.23c-.18.31-.46.58-.83.83-.37.25-.9.37-1.59.37ZM85.25,52.62c.64,0,1.17-.21,1.59-.62.42-.41.62-1,.62-1.77v-.13c0-.76-.21-1.34-.62-1.75-.41-.41-.94-.62-1.59-.62s-1.16.21-1.57.62-.62,1-.62,1.75v.13c0,.77.21,1.35.62,1.77.42.41.94.62,1.57.62Z"/>
          <path class="cls-12" d="M93.2,53.92c-.51,0-.96-.09-1.36-.26-.4-.17-.71-.43-.95-.76s-.35-.74-.35-1.22.12-.89.35-1.21c.23-.32.56-.56.96-.72.41-.16.87-.24,1.39-.24h2.15v-.46c0-.41-.12-.74-.37-.99-.25-.25-.63-.37-1.15-.37s-.9.12-1.16.36-.44.55-.53.93l-1.38-.45c.11-.38.3-.73.55-1.04.25-.31.59-.56,1.01-.75.42-.19.93-.29,1.52-.29.92,0,1.64.23,2.17.7.53.47.79,1.13.79,2v2.91c0,.29.13.43.4.43h.6v1.23h-1.11c-.33,0-.61-.09-.82-.26-.21-.17-.32-.41-.32-.7v-.04h-.22c-.08.14-.19.31-.34.5s-.38.36-.67.5c-.3.14-.69.21-1.18.21ZM93.42,52.7c.59,0,1.07-.17,1.44-.51.36-.34.55-.81.55-1.4v-.14h-2.07c-.39,0-.71.08-.95.25-.24.17-.36.41-.36.74s.12.58.37.78c.25.19.59.29,1.02.29Z"/>
          <path class="cls-12" d="M102.21,53.92c-.9,0-1.65-.2-2.24-.6s-.96-1.01-1.09-1.82l1.38-.33c.08.39.21.7.39.93.18.23.41.39.68.49s.57.14.88.14c.47,0,.83-.09,1.08-.27s.38-.42.38-.7-.12-.5-.36-.63c-.24-.13-.59-.24-1.06-.33l-.49-.09c-.48-.09-.91-.21-1.31-.37-.39-.16-.7-.39-.93-.67-.23-.29-.34-.66-.34-1.11,0-.67.25-1.19.75-1.56.5-.37,1.16-.55,1.98-.55s1.45.18,1.96.54c.51.36.84.85,1,1.46l-1.38.39c-.09-.43-.27-.73-.55-.91s-.62-.27-1.03-.27-.72.07-.95.22-.34.36-.34.62c0,.29.11.5.34.63.22.13.53.23.91.3l.5.09c.51.09.97.21,1.39.36.42.15.75.37,1,.66.24.29.37.67.37,1.15,0,.71-.26,1.26-.79,1.65-.53.39-1.23.59-2.13.59Z"/>
        </g>
        <g>
          <path class="cls-12" d="M58.8,69.39v-1.41h1.38v-7.44h-1.38v-1.41h5.2c.62,0,1.15.11,1.61.31.46.21.82.51,1.08.89.26.39.39.84.39,1.37v.15c0,.47-.09.85-.26,1.16-.18.3-.39.54-.64.7-.25.17-.49.28-.71.35v.23c.22.06.47.17.72.34.26.17.48.41.66.71.18.3.27.7.27,1.19v.15c0,.57-.13,1.05-.4,1.45s-.63.71-1.09.92c-.46.21-1,.32-1.6.32h-5.23ZM61.77,63.51h2.06c.5,0,.9-.12,1.2-.37.3-.25.45-.59.45-1.02v-.15c0-.43-.15-.77-.45-1.02-.3-.25-.7-.37-1.21-.37h-2.06v2.93ZM61.77,67.96h2.06c.53,0,.94-.13,1.24-.38s.45-.61.45-1.05v-.13c0-.45-.15-.8-.45-1.05-.3-.25-.72-.38-1.25-.38h-2.06v3Z"/>
          <path class="cls-12" d="M72.17,69.6c-.73,0-1.37-.15-1.92-.46-.55-.31-.97-.74-1.28-1.3s-.46-1.21-.46-1.95v-.18c0-.75.15-1.41.45-1.97.3-.56.72-1,1.27-1.3s1.17-.46,1.88-.46,1.3.15,1.82.46c.52.31.93.73,1.22,1.28s.44,1.19.44,1.92v.57h-5.55c.02.63.23,1.14.64,1.52s.91.56,1.52.56c.57,0,.99-.13,1.28-.38s.51-.55.67-.88l1.24.64c-.14.27-.33.56-.59.86-.26.3-.6.56-1.02.76-.42.2-.96.31-1.61.31ZM70.06,65.04h4c-.04-.55-.23-.97-.59-1.28s-.81-.46-1.38-.46-1.03.15-1.38.46-.57.73-.65,1.28Z"/>
          <path class="cls-12" d="M77.3,69.39v-7.22h1.48v.85h.23c.12-.3.3-.52.56-.67s.58-.21.96-.21h.86v1.36h-.92c-.49,0-.89.13-1.2.4-.31.27-.47.68-.47,1.24v4.25h-1.51Z"/>
          <path class="cls-12" d="M82.82,69.39v-10.25h1.51v5.84h.23l2.84-2.81h2.01l-3.65,3.5,3.76,3.72h-1.99l-2.97-3h-.23v3h-1.51Z"/>
          <path class="cls-12" d="M93.58,69.52c-.55,0-1.03-.12-1.46-.37-.43-.24-.77-.59-1.01-1.04-.24-.45-.37-.99-.37-1.61v-4.33h1.51v4.23c0,.62.16,1.09.47,1.38.31.3.75.45,1.3.45.61,0,1.11-.21,1.49-.62.38-.41.56-1.01.56-1.79v-3.65h1.51v7.22h-1.48v-1.08h-.23c-.14.29-.38.57-.73.83-.35.26-.87.39-1.55.39Z"/>
          <path class="cls-12" d="M101.95,69.6c-.52,0-.98-.09-1.38-.26-.41-.18-.73-.43-.97-.78s-.36-.76-.36-1.24.12-.91.36-1.24c.24-.33.57-.57.98-.74.41-.17.89-.25,1.41-.25h2.2v-.47c0-.42-.13-.76-.38-1.01-.25-.25-.64-.38-1.17-.38s-.91.12-1.19.37-.45.56-.54.95l-1.41-.45c.12-.39.3-.74.56-1.06.26-.32.6-.57,1.03-.77.43-.19.95-.29,1.55-.29.94,0,1.67.24,2.21.72.54.48.8,1.16.8,2.03v2.97c0,.29.14.44.41.44h.61v1.26h-1.13c-.34,0-.62-.09-.83-.26-.21-.18-.32-.41-.32-.72v-.04h-.22c-.08.15-.2.32-.35.51s-.39.36-.69.51c-.3.14-.7.21-1.2.21ZM102.17,68.35c.6,0,1.09-.17,1.46-.52.37-.35.56-.82.56-1.43v-.15h-2.11c-.4,0-.72.09-.97.26-.24.17-.37.42-.37.75s.13.6.38.79c.25.2.6.29,1.04.29Z"/>
          <path class="cls-12" d="M108.07,69.39v-10.25h1.51v10.25h-1.51Z"/>
          <path class="cls-12" d="M112.42,61.19c-.29,0-.54-.09-.74-.29-.2-.19-.3-.44-.3-.74s.1-.55.3-.74c.2-.19.45-.29.74-.29s.55.1.75.29c.19.19.29.44.29.74s-.1.55-.29.74c-.2.19-.44.29-.75.29ZM111.66,69.39v-7.22h1.51v7.22h-1.51Z"/>
          <path class="cls-12" d="M117.99,69.39c-.44,0-.79-.13-1.05-.4-.26-.26-.39-.62-.39-1.05v-4.49h-1.99v-1.27h1.99v-2.39h1.51v2.39h2.15v1.27h-2.15v4.23c0,.29.14.44.41.44h1.51v1.27h-1.99Z"/>
          <path class="cls-12" d="M124.07,69.6c-.52,0-.98-.09-1.38-.26-.41-.18-.73-.43-.97-.78s-.36-.76-.36-1.24.12-.91.36-1.24c.24-.33.57-.57.98-.74.41-.17.89-.25,1.41-.25h2.2v-.47c0-.42-.13-.76-.38-1.01-.25-.25-.64-.38-1.17-.38s-.91.12-1.19.37-.45.56-.54.95l-1.41-.45c.12-.39.3-.74.56-1.06.26-.32.6-.57,1.03-.77.43-.19.95-.29,1.55-.29.94,0,1.67.24,2.21.72.54.48.8,1.16.8,2.03v2.97c0,.29.14.44.41.44h.61v1.26h-1.13c-.34,0-.62-.09-.83-.26-.21-.18-.32-.41-.32-.72v-.04h-.22c-.08.15-.2.32-.35.51s-.39.36-.69.51c-.3.14-.7.21-1.2.21ZM124.29,68.35c.6,0,1.09-.17,1.46-.52.37-.35.56-.82.56-1.43v-.15h-2.11c-.4,0-.72.09-.97.26-.24.17-.37.42-.37.75s.13.6.38.79c.25.2.6.29,1.04.29Z"/>
          <path class="cls-12" d="M133.25,69.6c-.92,0-1.68-.2-2.28-.61s-.98-1.03-1.11-1.86l1.41-.34c.08.4.21.72.4.95.19.23.42.4.7.5s.58.15.9.15c.48,0,.85-.09,1.11-.28s.39-.42.39-.72-.12-.51-.37-.64c-.24-.14-.61-.25-1.08-.34l-.5-.09c-.49-.09-.93-.21-1.33-.38-.4-.17-.72-.4-.95-.69-.23-.29-.35-.67-.35-1.13,0-.68.25-1.21.76-1.59.51-.38,1.18-.56,2.02-.56s1.48.18,2,.55c.52.37.86.86,1.02,1.49l-1.41.4c-.09-.44-.27-.75-.56-.93s-.63-.27-1.05-.27-.73.08-.97.23-.35.36-.35.64c0,.29.11.51.34.64.23.14.54.24.93.31l.51.09c.52.09.99.21,1.42.37.43.16.77.38,1.02.67.25.29.37.68.37,1.17,0,.72-.27,1.28-.81,1.68-.54.4-1.26.6-2.17.6Z"/>
        </g>
      </g>
      <rect class="cls-1" y="12.11" width="151.9" height="73.17"/>
    </g>
    <text class="cls-4" transform="translate(167.67 39.6)"><tspan class="cls-7"><tspan x="0" y="0">PT. Solusi Cerdas Berkualitas</tspan></tspan><tspan class="cls-6"><tspan x="0" y="10.8">Jl. Pramuka No.27, Kemiling Permai</tspan></tspan><tspan class="cls-10"><tspan class="cls-5" x="0" y="25.2">Kec. Kemiling, Kota Bandar Lampung, Lampung 3515</tspan><tspan class="cls-8" x="221.21" y="25.2">8</tspan></tspan></text>
    <g class="cls-11">
      <rect class="cls-1" x="398.96" y="32.13" width="345.6" height="376.58"/>
      <g id="logo">
        <path class="cls-12" d="M611.14,317.65v-15.1l20.05-20.05c.9.25,1.84.4,2.8.46,7.59.44,14.27-5.42,14.79-13.01.59-8.72-6.82-15.88-15.61-14.88-6.39.73-11.54,5.87-12.26,12.27-.21,1.83-.06,3.61.38,5.27l-10.15,10.15v-40.01l20.05-20.05c1.41.38,2.91.54,4.46.45,7.09-.41,12.85-6.25,13.16-13.35.36-8.23-6.39-14.97-14.61-14.61-7.1.31-12.94,6.07-13.35,13.16-.09,1.55.07,3.05.45,4.46l-10.15,10.15v-38.56c-3.41-5.29-8.22-9.82-14-13.23v146.34c0,14.23,5.28,27.22,14,37.13,10.3,11.72,25.4,19.11,42.24,19.11,2.15,0,4.27-.12,6.36-.36-27.45-3.73-48.6-27.25-48.6-55.72ZM634.93,261.98c3.87,0,7,3.13,7,7s-3.13,7-7,7-7-3.13-7-7,3.13-7,7-7ZM634.93,202.17c3.87,0,7,3.13,7,7s-3.13,7-7,7-7-3.13-7-7,3.13-7,7-7Z"/>
        <path class="cls-12" d="M521.85,272.61c.51-1.89.62-3.95.27-6.06-.97-5.81-5.63-10.43-11.44-11.38-9.57-1.56-17.73,6.6-16.16,16.18,1.06,6.45,6.61,11.32,13.14,11.62,1.49.07,2.93-.09,4.29-.47l20.05,20.05v15.1c0,28.47-21.15,52-48.6,55.72,2.09.24,4.21.36,6.36.36,16.84,0,31.94-7.4,42.24-19.11,8.72-9.9,14-22.9,14-37.13v-20.73l-24.15-24.15ZM508.59,275.98c-3.87,0-7-3.13-7-7s3.13-7,7-7,7,3.13,7,7-3.13,7-7,7Z"/>
        <path class="cls-12" d="M532,184.39v38.56l-10.15-10.15c.38-1.41.54-2.91.45-4.46-.41-7.09-6.25-12.85-13.35-13.16-8.23-.36-14.97,6.39-14.61,14.61.31,7.1,6.07,12.95,13.16,13.35,1.55.09,3.05-.07,4.46-.45l20.05,20.05v15.66l14,14v-101.26c-5.78,3.41-10.59,7.94-14,13.23ZM508.59,216.18c-3.87,0-7-3.13-7-7s3.13-7,7-7,7,3.13,7,7-3.13,7-7,7Z"/>
        <path class="cls-12" d="M578.9,315.21c-.02-.6-.02-1.2-.02-1.8v-138.34c4.2-2.43,7.02-6.96,7.02-12.16,0-7.51-5.91-13.65-13.33-14.03-.23-.01-.45-.02-.67-.02-.24,0-.48,0-.72.02-7.42.38-13.33,6.52-13.33,14.03,0,5.2,2.83,9.74,7.02,12.16v138.34c0,.6,0,1.2-.02,1.8-.89,33.62-26.67,61.03-59.59,64.48,2.31.24,4.65.37,7.02.37,21.37,0,40.4-10.07,52.59-25.71,2.68-3.44,5.03-7.15,7-11.08,1.97,3.93,4.32,7.64,7,11.08,12.19,15.64,31.21,25.71,52.59,25.71,2.37,0,4.72-.12,7.02-.37-32.92-3.45-58.7-30.86-59.59-64.48ZM571.84,170.26c-3.72-.16-6.69-3.23-6.69-6.99s2.97-6.83,6.69-6.99c.12,0,.24,0,.36,0,.1,0,.21,0,.31,0,3.72.16,6.69,3.23,6.69,6.99s-2.97,6.83-6.69,6.99c-.1,0-.21,0-.31,0-.12,0-.24,0-.36,0Z"/>
        <g id="daun-8" data-name="daun">
          <path class="cls-12" d="M589.6,80.94c-3.92-8.49-10.15-15.7-17.89-20.81-7.74,5.11-13.98,12.33-17.9,20.83-2.93,6.36-4.57,13.45-4.57,20.92,0,15.8,7.33,29.89,18.77,39.06,1.19.95,2.42,1.85,3.7,2.69,1.26-.83,2.48-1.72,3.66-2.66,11.47-9.16,18.82-23.27,18.82-39.09,0-7.48-1.64-14.57-4.58-20.94ZM571.67,136.56c-4.24-5.96-6.74-13.25-6.74-21.12s2.5-15.16,6.74-21.12c4.24,5.96,6.74,13.25,6.74,21.12s-2.5,15.16-6.74,21.12Z"/>
        </g>
        <g id="daun-9" data-name="daun">
          <path class="cls-12" d="M640.81,110.91c6.98-2.57,14.54-3.12,21.77-1.64,1.48,7.23.93,14.8-1.65,21.79-1.93,5.23-4.99,10.14-9.19,14.34-8.89,8.89-20.94,12.69-32.53,11.41-1.2-.13-2.4-.32-3.6-.57-.24-1.17-.43-2.36-.56-3.55-1.3-11.6,2.5-23.67,11.4-32.57,4.21-4.21,9.12-7.27,14.36-9.2ZM619.61,152.28c5.74-.97,11.24-3.66,15.67-8.09s7.12-9.93,8.09-15.67c-5.74.97-11.24,3.66-15.67,8.09-4.43,4.43-7.12,9.93-8.09,15.67Z"/>
        </g>
        <g id="daun-10" data-name="daun">
          <path class="cls-12" d="M685,157.21c7.41-.68,14.85.75,21.45,4.05-.44,7.37-2.93,14.54-7.23,20.62-3.22,4.55-7.45,8.5-12.59,11.47-10.89,6.29-23.51,6.84-34.38,2.6-1.13-.44-2.24-.93-3.33-1.48.07-1.2.19-2.39.38-3.58,1.75-11.55,8.54-22.22,19.44-28.51,5.15-2.98,10.69-4.66,16.25-5.17ZM653.81,191.69c5.79.55,11.81-.63,17.23-3.76,5.42-3.13,9.45-7.75,11.87-13.04-5.79-.55-11.81.63-17.23,3.76-5.42,3.13-9.45,7.75-11.87,13.04Z"/>
        </g>
        <g id="daun-11" data-name="daun">
          <path class="cls-12" d="M502.7,110.92c-6.98-2.57-14.54-3.12-21.77-1.64-1.48,7.23-.93,14.8,1.65,21.79,1.93,5.23,4.99,10.14,9.19,14.34,8.89,8.89,20.94,12.69,32.53,11.41,1.2-.13,2.4-.32,3.6-.57.24-1.17.43-2.36.56-3.55,1.3-11.6-2.5-23.67-11.4-32.57-4.21-4.21-9.12-7.27-14.36-9.2ZM523.91,152.29c-5.74-.97-11.24-3.66-15.67-8.09s-7.12-9.93-8.09-15.67c5.74.97,11.24,3.66,15.67,8.09,4.43,4.43,7.12,9.93,8.09,15.67Z"/>
        </g>
        <g id="daun-12" data-name="daun">
          <path class="cls-12" d="M458.52,157.22c-7.41-.68-14.85.75-21.45,4.05.44,7.37,2.93,14.54,7.23,20.62,3.22,4.55,7.45,8.5,12.59,11.47,10.89,6.29,23.51,6.84,34.38,2.6,1.13-.44,2.24-.93,3.33-1.48-.07-1.2-.19-2.39-.38-3.58-1.75-11.55-8.54-22.22-19.44-28.51-5.15-2.98-10.69-4.66-16.25-5.17ZM489.71,191.7c-5.79.55-11.81-.63-17.23-3.76-5.42-3.13-9.45-7.75-11.87-13.04,5.79-.55,11.81.63,17.23,3.76,5.42,3.13,9.45,7.75,11.87,13.04Z"/>
        </g>
        <g id="daun-13" data-name="daun">
          <path class="cls-12" d="M446.63,225.3c-7.33,1.26-14.15,4.57-19.67,9.46,2.33,7,6.59,13.28,12.32,18.05,4.28,3.56,9.39,6.28,15.13,7.82,12.14,3.25,24.48.52,33.88-6.38.97-.72,1.92-1.48,2.83-2.29-.38-1.14-.81-2.26-1.29-3.36-4.68-10.7-14-19.25-26.16-22.51-5.75-1.54-11.54-1.74-17.03-.79ZM485.68,250.53c-5.45,2.03-11.57,2.45-17.61.83-6.05-1.62-11.13-5.04-14.84-9.53,5.45-2.03,11.57-2.45,17.61-.83,6.05,1.62,11.13,5.04,14.84,9.53Z"/>
        </g>
      </g>
    </g>
    <line class="cls-3" x1="151.9" y1="12.11" x2="151.9" y2="85.27"/>
  </g>
</svg>