<?xml version="1.0" encoding="UTF-8"?>
<svg id="Layer_2" data-name="Layer 2" xmlns="http://www.w3.org/2000/svg" viewBox="0 0 841.15 916.55">
  <defs>
    <style>
      .cls-1 {
        fill: none;
      }

      .cls-2 {
        fill: #f3c623;
      }
    </style>
  </defs>
  <g id="Layer_1-2" data-name="Layer 1">
    <g>
      <rect class="cls-1" width="841.15" height="916.55"/>
      <g id="logo">
        <path class="cls-2" d="M516.42,694.92v-36.74l48.8-48.8c2.2.6,4.48.98,6.83,1.11,18.48,1.07,34.74-13.19,35.99-31.66,1.43-21.22-16.6-38.65-38-36.21-15.56,1.77-28.08,14.29-29.85,29.86-.51,4.46-.15,8.79.93,12.82l-24.7,24.7v-97.38l48.79-48.79c3.43.92,7.08,1.31,10.84,1.1,17.26-.99,31.28-15.22,32.03-32.5.87-20.02-15.55-36.44-35.57-35.57-17.27.75-31.51,14.77-32.5,32.03-.22,3.76.18,7.41,1.1,10.84l-24.7,24.7v-93.86c-8.3-12.87-20.02-23.91-34.08-32.21v356.17c0,34.62,12.86,66.26,34.08,90.36,25.07,28.52,61.83,46.52,102.81,46.52,5.23,0,10.39-.3,15.47-.87-66.8-9.07-118.27-66.33-118.27-135.62ZM574.32,559.43c9.41,0,17.04,7.63,17.04,17.04s-7.63,17.04-17.04,17.04-17.04-7.63-17.04-17.04,7.63-17.04,17.04-17.04ZM574.32,413.86c9.41,0,17.04,7.63,17.04,17.04s-7.63,17.04-17.04,17.04-17.04-7.63-17.04-17.04,7.63-17.04,17.04-17.04Z"/>
        <path class="cls-2" d="M299.12,585.3c1.24-4.61,1.52-9.61.66-14.75-2.37-14.14-13.69-25.38-27.84-27.69-23.3-3.8-43.16,16.07-39.34,39.37,2.57,15.69,16.09,27.54,31.97,28.27,3.63.17,7.13-.23,10.45-1.13l48.8,48.8v36.74c0,69.29-51.47,126.56-118.27,135.62,5.08.58,10.24.87,15.47.87,40.98,0,77.74-18,102.81-46.52,21.22-24.11,34.08-55.74,34.08-90.36v-50.46l-58.77-58.77ZM266.83,593.51c-9.41,0-17.04-7.63-17.04-17.04s7.63-17.04,17.04-17.04,17.04,7.63,17.04,17.04-7.63,17.04-17.04,17.04Z"/>
        <path class="cls-2" d="M323.82,370.57v93.86l-24.7-24.7c.92-3.43,1.31-7.08,1.1-10.84-.99-17.26-15.22-31.28-32.5-32.03-20.02-.87-36.44,15.55-35.57,35.57.75,17.27,14.77,31.51,32.03,32.5,3.76.22,7.41-.18,10.84-1.1l48.79,48.79v38.12l34.08,34.08v-246.45c-14.06,8.3-25.78,19.33-34.08,32.21ZM266.83,447.94c-9.41,0-17.04-7.63-17.04-17.04s7.63-17.04,17.04-17.04,17.04,7.63,17.04,17.04-7.63,17.04-17.04,17.04Z"/>
        <path class="cls-2" d="M437.96,688.98c-.04-1.46-.06-2.91-.06-4.37v-336.69c10.21-5.9,17.1-16.95,17.1-29.6,0-18.29-14.38-33.23-32.44-34.15-.55-.03-1.09-.04-1.64-.04-.59,0-1.17.01-1.75.04-18.06.92-32.44,15.86-32.44,34.15,0,12.65,6.88,23.7,17.1,29.6v336.69c0,1.46-.01,2.91-.06,4.37-2.16,81.82-64.91,148.54-145.03,156.93,5.62.59,11.33.89,17.1.89,52.02,0,98.33-24.5,127.99-62.58,6.53-8.37,12.25-17.39,17.04-26.97,4.79,9.57,10.51,18.6,17.04,26.97,29.66,38.08,75.97,62.58,127.99,62.58,5.77,0,11.48-.3,17.1-.89-80.12-8.39-142.88-75.11-145.03-156.93ZM420.77,336.2c-9.05-.4-16.28-7.87-16.28-17.02s7.23-16.62,16.28-17.02c.28,0,.58-.01.87-.01.25,0,.5,0,.76.01,9.05.4,16.28,7.87,16.28,17.02s-7.23,16.62-16.28,17.02c-.25.01-.5.01-.76.01-.3,0-.59-.01-.87-.01Z"/>
        <g id="daun">
          <path class="cls-2" d="M464,118.79c-9.54-20.67-24.71-38.21-43.54-50.64-18.85,12.45-34.03,30-43.57,50.7-7.14,15.48-11.13,32.73-11.13,50.91,0,38.46,17.84,72.75,45.69,95.06,2.89,2.31,5.9,4.5,9.01,6.55,3.07-2.01,6.04-4.18,8.9-6.47,27.91-22.3,45.8-56.63,45.8-95.13,0-18.21-4-35.47-11.16-50.97ZM420.37,254.16c-10.33-14.5-16.4-32.24-16.4-51.4s6.07-36.89,16.4-51.4c10.33,14.5,16.4,32.24,16.4,51.4s-6.07,36.89-16.4,51.4Z"/>
        </g>
        <g id="daun-2" data-name="daun">
          <path class="cls-2" d="M588.65,191.74c16.99-6.26,35.4-7.59,52.98-3.99,3.6,17.6,2.27,36.02-4.01,53.03-4.69,12.73-12.15,24.67-22.38,34.9-21.64,21.64-50.96,30.89-79.18,27.77-2.93-.33-5.85-.78-8.75-1.38-.59-2.86-1.05-5.75-1.37-8.65-3.16-28.24,6.09-57.61,27.75-79.28,10.24-10.24,22.2-17.7,34.95-22.39ZM537.04,292.43c13.97-2.35,27.36-8.91,38.14-19.69,10.78-10.78,17.34-24.17,19.69-38.14-13.97,2.35-27.36,8.91-38.14,19.69-10.78,10.78-17.34,24.17-19.69,38.14Z"/>
        </g>
        <g id="daun-3" data-name="daun">
          <path class="cls-2" d="M696.19,304.43c18.03-1.65,36.15,1.83,52.21,9.86-1.08,17.93-7.13,35.38-17.6,50.19-7.83,11.08-18.12,20.68-30.65,27.91-26.5,15.3-57.21,16.65-83.67,6.33-2.74-1.07-5.45-2.27-8.09-3.6.17-2.91.47-5.83.92-8.71,4.26-28.1,20.8-54.07,47.33-69.39,12.54-7.24,26.03-11.35,39.55-12.59ZM620.28,388.34c14.1,1.35,28.74-1.52,41.93-9.14,13.2-7.62,23-18.86,28.89-31.74-14.1-1.35-28.74,1.52-41.93,9.14-13.2,7.62-23,18.86-28.89,31.74Z"/>
        </g>
        <g id="daun-4" data-name="daun">
          <path class="cls-2" d="M725.12,470.12c17.85,3.08,34.45,11.12,47.88,23.03-5.68,17.04-16.05,32.33-29.99,43.92-10.43,8.68-22.86,15.29-36.83,19.03-29.56,7.92-59.57,1.27-82.45-15.54-2.37-1.74-4.68-3.6-6.89-5.57.92-2.77,1.97-5.51,3.14-8.18,11.39-26.04,34.08-46.85,63.67-54.78,13.99-3.75,28.08-4.23,41.46-1.92ZM630.08,531.52c13.27,4.95,28.15,5.97,42.87,2.02,14.72-3.94,27.1-12.26,36.12-23.19-13.27-4.95-28.15-5.96-42.87-2.02-14.72,3.94-27.1,12.26-36.12,23.19Z"/>
        </g>
        <g id="daun-5" data-name="daun">
          <path class="cls-2" d="M252.5,191.77c-16.99-6.26-35.4-7.59-52.98-3.99-3.6,17.6-2.27,36.02,4.01,53.03,4.69,12.73,12.15,24.67,22.38,34.9,21.64,21.64,50.96,30.89,79.18,27.77,2.93-.33,5.85-.78,8.75-1.38.59-2.86,1.05-5.75,1.37-8.65,3.16-28.24-6.09-57.61-27.75-79.28-10.24-10.24-22.2-17.7-34.95-22.39ZM304.11,292.46c-13.97-2.35-27.36-8.91-38.14-19.69-10.78-10.78-17.34-24.17-19.69-38.14,13.97,2.35,27.36,8.91,38.14,19.69,10.78,10.78,17.34,24.17,19.69,38.14Z"/>
        </g>
        <g id="daun-6" data-name="daun">
          <path class="cls-2" d="M144.97,304.46c-18.03-1.65-36.15,1.83-52.21,9.86,1.08,17.93,7.13,35.38,17.6,50.19,7.83,11.08,18.12,20.68,30.65,27.91,26.5,15.3,57.21,16.65,83.67,6.33,2.74-1.07,5.45-2.27,8.09-3.6-.17-2.91-.47-5.83-.92-8.71-4.26-28.1-20.8-54.07-47.33-69.39-12.54-7.24-26.03-11.35-39.55-12.59ZM220.88,388.37c-14.1,1.35-28.74-1.52-41.93-9.14-13.2-7.62-23-18.86-28.89-31.74,14.1-1.35,28.74,1.52,41.93,9.14,13.2,7.62,23,18.86,28.89,31.74Z"/>
        </g>
        <g id="daun-7" data-name="daun">
          <path class="cls-2" d="M116.03,470.15c-17.85,3.08-34.45,11.12-47.88,23.03,5.68,17.04,16.05,32.33,29.99,43.92,10.43,8.68,22.86,15.29,36.83,19.03,29.56,7.92,59.57,1.27,82.45-15.54,2.37-1.74,4.68-3.6,6.89-5.57-.92-2.77-1.97-5.51-3.14-8.18-11.39-26.04-34.08-46.85-63.67-54.78-13.99-3.75-28.08-4.23-41.46-1.92ZM211.07,531.55c-13.27,4.95-28.15,5.97-42.87,2.02-14.72-3.94-27.1-12.26-36.12-23.19,13.27-4.95,28.15-5.96,42.87-2.02,14.72,3.94,27.1,12.26,36.12,23.19Z"/>
        </g>
      </g>
    </g>
  </g>
</svg>