<?xml version="1.0" encoding="UTF-8"?>
<svg id="Layer_2" data-name="Layer 2" xmlns="http://www.w3.org/2000/svg" viewBox="0 0 1902.81 916.55">
  <defs>
    <style>
      .cls-1 {
        fill: none;
      }

      .cls-2 {
        fill: #f3c623;
      }
    </style>
  </defs>
  <g id="Layer_3" data-name="Layer 3">
    <g>
      <g>
        <g>
          <g>
            <path class="cls-2" d="M498.49,618.52v-24.75l32.87-32.87c1.9.52,3.88.79,5.94.79,12.67,0,22.95-10.28,22.95-22.95s-10.28-22.95-22.95-22.95-22.95,10.28-22.95,22.95c0,2.06.27,4.05.78,5.95l-16.63,16.63v-65.59l32.86-32.86c1.9.51,3.89.78,5.95.78,12.67,0,22.95-10.28,22.95-22.95s-10.28-22.95-22.95-22.95-22.95,10.28-22.95,22.95c0,2.06.27,4.05.78,5.95l-16.63,16.63v-63.21c-5.59-8.67-13.48-16.1-22.95-21.69v239.87c0,23.32,8.66,44.62,22.95,60.86,16.88,19.21,41.64,31.33,69.24,31.33,3.52,0,6.99-.2,10.42-.59-44.99-6.11-79.66-44.67-79.66-91.34ZM537.3,527.27c6.34,0,11.47,5.14,11.47,11.47s-5.14,11.47-11.47,11.47-11.47-5.14-11.47-11.47,5.14-11.47,11.47-11.47ZM537.3,429.23c6.34,0,11.47,5.14,11.47,11.47s-5.14,11.47-11.47,11.47-11.47-5.14-11.47-11.47,5.14-11.47,11.47-11.47Z"/>
            <path class="cls-2" d="M352.38,544.69c.51-1.9.78-3.89.78-5.95,0-12.67-10.28-22.95-22.95-22.95s-22.95,10.28-22.95,22.95,10.28,22.95,22.95,22.95c2.06,0,4.04-.27,5.94-.79l32.87,32.87v24.75c0,46.67-34.66,85.23-79.66,91.34,3.42.39,6.89.59,10.42.59,27.6,0,52.36-12.12,69.24-31.33,14.29-16.23,22.95-37.54,22.95-60.86v-33.99l-39.58-39.58ZM330.21,550.22c-6.34,0-11.47-5.14-11.47-11.47s5.14-11.47,11.47-11.47,11.47,5.14,11.47,11.47-5.14,11.47-11.47,11.47Z"/>
            <path class="cls-2" d="M369.02,400.08v63.21l-16.63-16.63c.51-1.9.78-3.89.78-5.95,0-12.67-10.28-22.95-22.95-22.95s-22.95,10.28-22.95,22.95,10.28,22.95,22.95,22.95c2.06,0,4.05-.27,5.95-.78l32.86,32.86v25.67l22.95,22.95v-165.98c-9.47,5.59-17.36,13.02-22.95,21.69ZM330.21,452.18c-6.34,0-11.47-5.14-11.47-11.47s5.14-11.47,11.47-11.47,11.47,5.14,11.47,11.47-5.14,11.47-11.47,11.47Z"/>
            <path class="cls-2" d="M445.91,614.23c-.03-.98-.04-1.96-.04-2.93v-225.97c6.85-3.96,11.47-11.38,11.47-19.87,0-12.27-9.65-22.3-21.77-22.92-.37-.02-.73-.03-1.1-.03-.4,0-.79,0-1.18.03-12.12.62-21.77,10.65-21.77,22.92,0,8.49,4.62,15.91,11.47,19.87v225.97c0,.98,0,1.96-.04,2.93-1.45,54.91-43.56,99.69-97.34,105.32,3.77.4,7.6.6,11.47.6,34.91,0,66-16.44,85.9-42,4.38-5.62,8.22-11.67,11.43-18.1,3.21,6.43,7.05,12.48,11.43,18.1,19.91,25.55,50.99,42,85.9,42,3.87,0,7.7-.2,11.47-.6-53.77-5.63-95.89-50.41-97.34-105.32ZM433.89,376.93c-6.1-.27-10.97-5.3-10.97-11.46s4.87-11.2,10.97-11.46c.19,0,.39,0,.59,0,.17,0,.34,0,.51,0,6.1.27,10.97,5.3,10.97,11.46s-4.87,11.2-10.97,11.46c-.17,0-.34,0-.51,0-.2,0-.4,0-.59,0Z"/>
          </g>
          <g>
            <g id="daun">
              <path class="cls-2" d="M463,230.51c-6.43-13.92-16.64-25.73-29.33-34.11-12.69,8.38-22.92,20.21-29.35,34.15-4.81,10.43-7.49,22.04-7.49,34.28,0,25.9,12.01,48.99,30.77,64.02,1.95,1.56,3.97,3.03,6.07,4.41,2.07-1.36,4.07-2.81,6-4.36,18.8-15.02,30.84-38.14,30.84-64.07,0-12.26-2.69-23.89-7.51-34.32ZM433.61,321.68c-6.95-9.77-11.05-21.71-11.05-34.61s4.09-24.85,11.05-34.61c6.95,9.77,11.05,21.71,11.05,34.61s-4.09,24.85-11.05,34.61Z"/>
            </g>
            <g id="daun-2" data-name="daun">
              <path class="cls-2" d="M546.95,279.64c11.44-4.22,23.84-5.11,35.68-2.69,2.42,11.85,1.53,24.26-2.7,35.72-3.16,8.57-8.18,16.61-15.07,23.5-14.57,14.57-34.32,20.8-53.32,18.7-1.97-.22-3.94-.53-5.89-.93-.4-1.93-.71-3.87-.92-5.83-2.13-19.02,4.1-38.8,18.69-53.39,6.9-6.9,14.95-11.92,23.54-15.08ZM512.19,347.45c9.41-1.58,18.43-6,25.69-13.26,7.26-7.26,11.68-16.28,13.26-25.69-9.41,1.58-18.43,6-25.68,13.26-7.26,7.26-11.67,16.28-13.26,25.68Z"/>
            </g>
            <g id="daun-3" data-name="daun">
              <path class="cls-2" d="M619.37,355.53c12.15-1.11,24.35,1.23,35.16,6.64-.73,12.08-4.8,23.83-11.85,33.8-5.27,7.46-12.21,13.93-20.64,18.8-17.85,10.3-38.53,11.21-56.35,4.26-1.85-.72-3.67-1.53-5.45-2.43.11-1.96.32-3.92.62-5.87,2.87-18.92,14.01-36.42,31.87-46.73,8.45-4.88,17.53-7.65,26.64-8.48ZM568.25,412.04c9.5.91,19.35-1.03,28.24-6.16,8.89-5.13,15.49-12.7,19.45-21.38-9.5-.91-19.35,1.03-28.24,6.16-8.89,5.13-15.49,12.7-19.45,21.38Z"/>
            </g>
            <g id="daun-4" data-name="daun">
              <path class="cls-2" d="M638.86,467.12c12.02,2.07,23.2,7.49,32.25,15.51-3.83,11.48-10.81,21.77-20.2,29.58-7.02,5.84-15.39,10.3-24.8,12.82-19.9,5.33-40.12.86-55.53-10.46-1.6-1.17-3.15-2.43-4.64-3.75.62-1.87,1.32-3.71,2.12-5.51,7.67-17.54,22.95-31.55,42.88-36.89,9.42-2.52,18.91-2.85,27.92-1.29ZM574.85,508.47c8.94,3.33,18.96,4.02,28.87,1.36,9.91-2.66,18.25-8.26,24.32-15.61-8.94-3.33-18.96-4.02-28.87-1.36-9.91,2.66-18.25,8.26-24.32,15.61Z"/>
            </g>
            <g id="daun-5" data-name="daun">
              <path class="cls-2" d="M320.56,279.66c-11.44-4.22-23.84-5.11-35.68-2.69-2.42,11.85-1.53,24.26,2.7,35.72,3.16,8.57,8.18,16.61,15.07,23.5,14.57,14.57,34.32,20.8,53.32,18.7,1.97-.22,3.94-.53,5.89-.93.4-1.93.71-3.87.92-5.83,2.13-19.02-4.1-38.8-18.69-53.39-6.9-6.9-14.95-11.92-23.54-15.08ZM355.32,347.47c-9.41-1.58-18.43-6-25.69-13.26-7.26-7.26-11.68-16.28-13.26-25.69,9.41,1.58,18.43,6,25.68,13.26,7.26,7.26,11.67,16.28,13.26,25.68Z"/>
            </g>
            <g id="daun-6" data-name="daun">
              <path class="cls-2" d="M248.14,355.55c-12.15-1.11-24.35,1.23-35.16,6.64.73,12.08,4.8,23.83,11.85,33.8,5.27,7.46,12.21,13.93,20.64,18.8,17.85,10.3,38.53,11.21,56.35,4.26,1.85-.72,3.67-1.53,5.45-2.43-.11-1.96-.32-3.92-.62-5.87-2.87-18.92-14.01-36.42-31.87-46.73-8.45-4.88-17.53-7.65-26.64-8.48ZM299.26,412.06c-9.5.91-19.35-1.03-28.24-6.16-8.89-5.13-15.49-12.7-19.45-21.38,9.5-.91,19.35,1.03,28.24,6.16,8.89,5.13,15.49,12.7,19.45,21.38Z"/>
            </g>
            <g id="daun-7" data-name="daun">
              <path class="cls-2" d="M228.65,467.14c-12.02,2.07-23.2,7.49-32.25,15.51,3.83,11.48,10.81,21.77,20.2,29.58,7.02,5.84,15.39,10.3,24.8,12.82,19.9,5.33,40.12.86,55.53-10.46,1.6-1.17,3.15-2.43,4.64-3.75-.62-1.87-1.32-3.71-2.12-5.51-7.67-17.54-22.95-31.55-42.88-36.89-9.42-2.52-18.91-2.85-27.92-1.29ZM292.66,508.49c-8.94,3.33-18.96,4.02-28.87,1.36-9.91-2.66-18.25-8.26-24.32-15.61,8.94-3.33,18.96-4.02,28.87-1.36,9.91,2.66,18.25,8.26,24.32,15.61Z"/>
            </g>
          </g>
        </g>
        <g>
          <path class="cls-2" d="M785.14,327.34c-9.47,0-17.87-1.68-25.18-5.04-7.32-3.36-13.04-8.3-17.18-14.84-4.14-6.54-6.21-14.48-6.21-23.83v-4.49h19.25v4.49c0,8.87,2.66,15.53,8,19.96,5.34,4.44,12.44,6.65,21.32,6.65s15.76-1.89,20.32-5.66c4.56-3.78,6.84-8.66,6.84-14.66,0-3.96-1.08-7.19-3.23-9.71-2.16-2.52-5.22-4.53-9.17-6.03-3.96-1.5-8.7-2.91-14.21-4.23l-6.65-1.61c-8.03-1.92-15.02-4.29-20.95-7.1-5.94-2.82-10.52-6.57-13.76-11.24-3.24-4.68-4.86-10.67-4.86-17.99s1.83-13.79,5.49-19.06c3.65-5.28,8.72-9.35,15.2-12.23,6.47-2.88,14.09-4.32,22.84-4.32s16.58,1.5,23.47,4.5c6.89,3,12.32,7.44,16.28,13.31,3.96,5.87,5.94,13.25,5.94,22.12v6.47h-19.25v-6.47c0-5.4-1.11-9.77-3.33-13.13-2.22-3.36-5.3-5.82-9.26-7.38-3.96-1.56-8.58-2.34-13.85-2.34-7.67,0-13.64,1.59-17.9,4.77-4.25,3.18-6.38,7.59-6.38,13.22,0,3.83.93,6.99,2.79,9.44,1.86,2.46,4.59,4.47,8.18,6.03,3.6,1.56,8.09,2.94,13.49,4.14l6.65,1.62c8.15,1.8,15.35,4.11,21.58,6.92,6.23,2.82,11.15,6.63,14.75,11.42,3.6,4.8,5.4,10.97,5.4,18.53s-1.89,14.15-5.67,19.78c-3.78,5.64-9.14,10.04-16.1,13.22-6.96,3.18-15.17,4.77-24.64,4.77Z"/>
          <path class="cls-2" d="M893.8,327.34c-8.87,0-16.75-1.83-23.65-5.48-6.9-3.66-12.32-8.9-16.28-15.74-3.96-6.84-5.93-14.93-5.93-24.28v-2.7c0-9.35,1.98-17.42,5.93-24.19,3.96-6.77,9.38-12.02,16.28-15.73,6.89-3.72,14.77-5.58,23.65-5.58s16.79,1.86,23.74,5.58c6.95,3.72,12.41,8.96,16.37,15.73,3.96,6.78,5.93,14.84,5.93,24.19v2.7c0,9.35-1.98,17.44-5.93,24.28-3.96,6.84-9.42,12.08-16.37,15.74-6.95,3.65-14.87,5.48-23.74,5.48ZM893.8,310.79c8.15,0,14.78-2.61,19.88-7.83,5.09-5.22,7.64-12.44,7.64-21.67v-1.62c0-9.23-2.52-16.46-7.55-21.67-5.04-5.22-11.69-7.83-19.96-7.83s-14.6,2.61-19.69,7.83c-5.1,5.22-7.65,12.44-7.65,21.67v1.62c0,9.24,2.55,16.46,7.65,21.67,5.09,5.22,11.66,7.83,19.69,7.83Z"/>
          <path class="cls-2" d="M961.29,324.82v-125.9h18.53v125.9h-18.53Z"/>
          <path class="cls-2" d="M1039.63,326.44c-6.72,0-12.71-1.5-17.98-4.5-5.28-3-9.42-7.25-12.41-12.77-3-5.51-4.5-12.11-4.5-19.78v-53.24h18.53v51.98c0,7.67,1.92,13.34,5.76,16.99,3.83,3.66,9.17,5.49,16.01,5.49,7.55,0,13.64-2.55,18.26-7.65,4.61-5.09,6.92-12.44,6.92-22.03v-44.78h18.53v88.67h-18.16v-13.31h-2.88c-1.68,3.6-4.68,6.99-8.99,10.16-4.32,3.18-10.68,4.77-19.07,4.77Z"/>
          <path class="cls-2" d="M1150.39,327.34c-11.27,0-20.62-2.52-28.06-7.55-7.44-5.04-11.99-12.65-13.67-22.84l17.27-4.14c.96,4.92,2.58,8.82,4.85,11.69,2.28,2.88,5.13,4.92,8.54,6.12,3.42,1.2,7.1,1.8,11.06,1.8,5.87,0,10.4-1.14,13.58-3.42,3.18-2.28,4.77-5.22,4.77-8.81s-1.5-6.24-4.49-7.91c-3-1.68-7.44-3.06-13.31-4.14l-6.12-1.08c-6-1.08-11.45-2.64-16.36-4.68-4.92-2.04-8.82-4.85-11.69-8.46-2.88-3.6-4.32-8.21-4.32-13.85,0-8.39,3.12-14.9,9.35-19.52,6.23-4.62,14.51-6.92,24.82-6.92s18.13,2.25,24.55,6.74c6.41,4.5,10.58,10.59,12.5,18.26l-17.27,4.85c-1.08-5.4-3.36-9.2-6.84-11.42-3.48-2.22-7.8-3.33-12.95-3.33s-8.99.93-11.87,2.79c-2.88,1.86-4.32,4.47-4.32,7.83,0,3.6,1.41,6.24,4.23,7.91,2.82,1.68,6.62,2.94,11.42,3.78l6.3,1.08c6.35,1.08,12.17,2.58,17.45,4.49,5.27,1.92,9.44,4.68,12.5,8.27,3.05,3.6,4.59,8.4,4.59,14.39,0,8.87-3.3,15.77-9.89,20.69-6.6,4.91-15.47,7.37-26.62,7.37Z"/>
          <path class="cls-2" d="M1216.27,224.1c-3.6,0-6.63-1.17-9.08-3.51-2.46-2.34-3.69-5.36-3.69-9.08s1.23-6.75,3.69-9.08c2.45-2.34,5.48-3.51,9.08-3.51s6.77,1.17,9.17,3.51c2.4,2.34,3.6,5.37,3.6,9.08s-1.2,6.74-3.6,9.08c-2.4,2.34-5.46,3.51-9.17,3.51ZM1206.92,324.82v-88.67h18.53v88.67h-18.53Z"/>
        </g>
        <g>
          <path class="cls-2" d="M786.57,523.74c-15.35,0-27.52-4.34-36.51-13.04-8.99-8.69-13.49-21.25-13.49-37.68v-29.49c0-16.43,4.49-28.99,13.49-37.68,9-8.69,21.16-13.04,36.51-13.04s26.77,4.2,34.98,12.59c8.21,8.39,12.32,19.84,12.32,34.35v1.08h-19.25v-1.62c0-8.51-2.31-15.47-6.92-20.86-4.62-5.4-11.66-8.09-21.13-8.09s-17.09,2.91-22.48,8.72c-5.4,5.82-8.09,13.88-8.09,24.19v30.22c0,10.19,2.7,18.23,8.09,24.1,5.4,5.87,12.89,8.81,22.48,8.81s16.52-2.72,21.13-8.18c4.62-5.45,6.92-12.38,6.92-20.77v-3.06h19.25v2.52c0,14.51-4.11,25.96-12.32,34.35-8.22,8.39-19.88,12.59-34.98,12.59Z"/>
          <path class="cls-2" d="M895.85,523.74c-8.99,0-16.85-1.89-23.56-5.66-6.72-3.78-11.96-9.11-15.74-16.01-3.78-6.89-5.66-14.9-5.66-24.01v-2.16c0-9.23,1.86-17.29,5.58-24.19,3.71-6.89,8.9-12.23,15.55-16.01,6.65-3.78,14.36-5.66,23.11-5.66s15.98,1.89,22.39,5.66c6.41,3.78,11.42,9.03,15.02,15.74,3.6,6.71,5.4,14.57,5.4,23.56v7.02h-68.16c.24,7.79,2.84,14,7.82,18.61s11.18,6.92,18.62,6.92c6.95,0,12.2-1.56,15.73-4.67,3.54-3.12,6.26-6.71,8.19-10.79l15.29,7.91c-1.68,3.36-4.11,6.9-7.28,10.61-3.18,3.72-7.35,6.84-12.5,9.35-5.16,2.52-11.75,3.78-19.78,3.78ZM869.95,467.81h49.1c-.48-6.71-2.87-11.96-7.19-15.73s-9.95-5.66-16.91-5.66-12.62,1.89-17,5.66c-4.38,3.78-7.05,9.02-8,15.73Z"/>
          <path class="cls-2" d="M958.86,521.23v-88.67h18.16v10.43h2.88c1.44-3.71,3.75-6.45,6.92-8.18,3.18-1.74,7.1-2.61,11.78-2.61h10.61v16.73h-11.33c-6,0-10.91,1.65-14.75,4.94-3.84,3.3-5.75,8.37-5.75,15.2v52.16h-18.53Z"/>
          <path class="cls-2" d="M1062.69,523.74c-7.31,0-14.09-1.8-20.33-5.4-6.24-3.6-11.24-8.78-15.02-15.56-3.78-6.77-5.66-14.95-5.66-24.55v-2.7c0-9.47,1.86-17.63,5.58-24.46,3.71-6.84,8.69-12.05,14.92-15.65,6.24-3.6,13.07-5.4,20.51-5.4,5.76,0,10.58.72,14.48,2.16,3.9,1.44,7.11,3.27,9.63,5.49,2.52,2.22,4.43,4.53,5.75,6.92h2.88v-49.28h18.53v125.9h-18.16v-12.59h-2.88c-2.28,3.83-5.73,7.31-10.34,10.43-4.62,3.11-11.24,4.67-19.87,4.67ZM1067.9,507.55c8.03,0,14.66-2.58,19.87-7.73,5.22-5.15,7.83-12.53,7.83-22.12v-1.62c0-9.47-2.58-16.78-7.73-21.94-5.16-5.16-11.81-7.73-19.96-7.73s-14.48,2.58-19.7,7.73c-5.22,5.16-7.82,12.47-7.82,21.94v1.62c0,9.59,2.61,16.97,7.82,22.12,5.22,5.16,11.78,7.73,19.7,7.73Z"/>
          <path class="cls-2" d="M1167.51,523.74c-6.36,0-12.02-1.08-17-3.23-4.98-2.16-8.93-5.34-11.87-9.53-2.94-4.2-4.41-9.29-4.41-15.29s1.47-11.18,4.41-15.2c2.94-4.02,6.95-7.04,12.05-9.08,5.09-2.04,10.88-3.06,17.35-3.06h26.98v-5.76c0-5.15-1.56-9.29-4.67-12.41-3.12-3.12-7.91-4.68-14.39-4.68s-11.21,1.5-14.57,4.5c-3.36,3-5.57,6.89-6.65,11.69l-17.27-5.58c1.43-4.79,3.74-9.14,6.92-13.04,3.18-3.9,7.4-7.05,12.68-9.45,5.27-2.4,11.63-3.6,19.06-3.6,11.51,0,20.56,2.94,27.16,8.81,6.59,5.88,9.89,14.21,9.89,25v36.51c0,3.6,1.68,5.4,5.04,5.4h7.55v15.47h-13.85c-4.2,0-7.62-1.08-10.25-3.24-2.64-2.16-3.96-5.09-3.96-8.81v-.54h-2.7c-.96,1.8-2.4,3.89-4.32,6.29s-4.74,4.47-8.45,6.21c-3.72,1.74-8.64,2.61-14.75,2.61ZM1170.2,508.46c7.43,0,13.43-2.13,17.98-6.39,4.56-4.25,6.84-10.1,6.84-17.53v-1.8h-25.9c-4.92,0-8.87,1.05-11.87,3.15-3,2.1-4.5,5.19-4.5,9.27s1.56,7.31,4.67,9.71c3.12,2.4,7.38,3.6,12.77,3.6Z"/>
          <path class="cls-2" d="M1280.35,523.74c-11.27,0-20.62-2.52-28.06-7.55-7.44-5.04-11.99-12.65-13.67-22.84l17.27-4.14c.96,4.92,2.58,8.82,4.85,11.69,2.28,2.88,5.13,4.92,8.54,6.12,3.42,1.2,7.1,1.8,11.06,1.8,5.87,0,10.4-1.14,13.58-3.42,3.18-2.28,4.77-5.22,4.77-8.81s-1.5-6.24-4.49-7.91c-3-1.68-7.44-3.06-13.31-4.14l-6.12-1.08c-6-1.08-11.45-2.64-16.36-4.68-4.92-2.04-8.82-4.85-11.69-8.46-2.88-3.6-4.32-8.21-4.32-13.85,0-8.39,3.12-14.9,9.35-19.52,6.23-4.62,14.51-6.92,24.82-6.92s18.13,2.25,24.55,6.74c6.41,4.5,10.58,10.59,12.5,18.26l-17.27,4.85c-1.08-5.4-3.36-9.2-6.84-11.42-3.48-2.22-7.8-3.33-12.95-3.33s-8.99.93-11.87,2.79c-2.88,1.86-4.32,4.47-4.32,7.83,0,3.6,1.41,6.24,4.23,7.91,2.82,1.68,6.62,2.94,11.42,3.78l6.3,1.08c6.35,1.08,12.17,2.58,17.45,4.49,5.27,1.92,9.44,4.68,12.5,8.27,3.05,3.6,4.59,8.4,4.59,14.39,0,8.87-3.3,15.77-9.89,20.69-6.6,4.91-15.47,7.37-26.62,7.37Z"/>
        </g>
        <g>
          <path class="cls-2" d="M736.57,717.58v-17.61h17.24v-93.16h-17.24v-17.61h65.1c7.71,0,14.43,1.32,20.17,3.94,5.75,2.63,10.24,6.36,13.48,11.18,3.24,4.84,4.86,10.55,4.86,17.15v1.84c0,5.87-1.1,10.7-3.3,14.49-2.2,3.79-4.86,6.73-7.97,8.81-3.12,2.08-6.08,3.55-8.89,4.4v2.94c2.81.74,5.84,2.17,9.07,4.31,3.24,2.14,5.99,5.11,8.25,8.89,2.26,3.79,3.39,8.75,3.39,14.85v1.84c0,7.09-1.65,13.14-4.95,18.16-3.3,5.01-7.85,8.86-13.66,11.55-5.81,2.69-12.5,4.03-20.08,4.03h-65.47ZM773.8,643.86h25.86c6.23,0,11.25-1.56,15.04-4.68,3.79-3.12,5.68-7.37,5.68-12.74v-1.84c0-5.38-1.87-9.63-5.59-12.74-3.73-3.12-8.78-4.68-15.13-4.68h-25.86v36.68ZM773.8,699.61h25.86c6.6,0,11.79-1.59,15.59-4.77,3.79-3.18,5.69-7.58,5.69-13.2v-1.65c0-5.62-1.87-10.02-5.59-13.2-3.73-3.18-8.96-4.77-15.68-4.77h-25.86v37.59Z"/>
          <path class="cls-2" d="M904.02,720.15c-9.17,0-17.18-1.93-24.02-5.78-6.85-3.85-12.2-9.29-16.05-16.32-3.85-7.03-5.78-15.19-5.78-24.48v-2.2c0-9.41,1.9-17.63,5.69-24.66,3.79-7.03,9.07-12.47,15.86-16.32,6.79-3.85,14.64-5.78,23.56-5.78s16.29,1.93,22.83,5.78c6.54,3.85,11.65,9.2,15.31,16.05,3.67,6.85,5.5,14.85,5.5,24.02v7.15h-69.5c.24,7.94,2.9,14.27,7.97,18.98,5.07,4.71,11.4,7.06,18.98,7.06,7.09,0,12.44-1.59,16.04-4.77,3.61-3.18,6.39-6.85,8.35-11l15.59,8.07c-1.71,3.42-4.19,7.03-7.43,10.82-3.24,3.79-7.49,6.97-12.74,9.54-5.26,2.57-11.98,3.85-20.17,3.85ZM877.61,663.11h50.06c-.49-6.85-2.93-12.19-7.33-16.04-4.4-3.85-10.15-5.78-17.24-5.78s-12.87,1.93-17.33,5.78c-4.46,3.85-7.18,9.2-8.16,16.04Z"/>
          <path class="cls-2" d="M968.26,717.58v-90.41h18.52v10.64h2.94c1.47-3.79,3.82-6.57,7.06-8.34,3.24-1.77,7.24-2.66,12.01-2.66h10.82v17.06h-11.56c-6.11,0-11.12,1.68-15.04,5.04-3.91,3.37-5.87,8.53-5.87,15.5v53.18h-18.89Z"/>
          <path class="cls-2" d="M1037.37,717.58v-128.37h18.89v73.17h2.93l35.58-35.21h25.12l-45.66,43.83,47.13,46.58h-24.94l-37.23-37.59h-2.93v37.59h-18.89Z"/>
          <path class="cls-2" d="M1172.27,719.23c-6.85,0-12.96-1.53-18.34-4.59-5.38-3.05-9.6-7.39-12.66-13.02-3.06-5.62-4.59-12.35-4.59-20.17v-54.28h18.89v53c0,7.83,1.96,13.6,5.87,17.33,3.91,3.73,9.35,5.6,16.32,5.6,7.7,0,13.9-2.6,18.61-7.8,4.7-5.19,7.06-12.68,7.06-22.47v-45.66h18.89v90.41h-18.52v-13.57h-2.94c-1.72,3.67-4.77,7.12-9.17,10.36-4.4,3.24-10.88,4.86-19.44,4.86Z"/>
          <path class="cls-2" d="M1277.04,720.15c-6.48,0-12.26-1.1-17.33-3.3-5.07-2.2-9.11-5.44-12.1-9.72-2.99-4.28-4.49-9.48-4.49-15.59s1.5-11.4,4.49-15.5c2.99-4.09,7.09-7.18,12.29-9.26,5.19-2.08,11.09-3.12,17.69-3.12h27.51v-5.87c0-5.25-1.59-9.47-4.77-12.65-3.18-3.18-8.07-4.77-14.68-4.77s-11.43,1.53-14.85,4.59c-3.42,3.05-5.68,7.03-6.78,11.92l-17.61-5.69c1.46-4.89,3.82-9.32,7.06-13.29,3.24-3.97,7.55-7.18,12.93-9.63,5.38-2.44,11.85-3.67,19.44-3.67,11.74,0,20.97,2.99,27.69,8.98,6.72,5.99,10.08,14.49,10.08,25.49v37.23c0,3.67,1.71,5.5,5.14,5.5h7.7v15.77h-14.12c-4.28,0-7.77-1.1-10.45-3.3-2.69-2.2-4.03-5.19-4.03-8.98v-.55h-2.75c-.98,1.83-2.45,3.97-4.4,6.42-1.96,2.45-4.83,4.56-8.62,6.33-3.79,1.77-8.81,2.66-15.04,2.66ZM1279.79,704.56c7.58,0,13.69-2.17,18.34-6.51,4.65-4.34,6.97-10.3,6.97-17.88v-1.84h-26.41c-5.01,0-9.05,1.07-12.1,3.21-3.06,2.14-4.59,5.29-4.59,9.45s1.59,7.46,4.77,9.9c3.18,2.45,7.52,3.67,13.02,3.67Z"/>
          <path class="cls-2" d="M1353.71,717.58v-128.37h18.89v128.37h-18.89Z"/>
          <path class="cls-2" d="M1408.26,614.88c-3.67,0-6.76-1.19-9.26-3.58-2.51-2.38-3.76-5.47-3.76-9.26s1.25-6.88,3.76-9.26c2.5-2.38,5.59-3.58,9.26-3.58s6.9,1.19,9.35,3.58c2.44,2.38,3.67,5.47,3.67,9.26s-1.22,6.87-3.67,9.26c-2.45,2.39-5.57,3.58-9.35,3.58ZM1398.73,717.58v-90.41h18.89v90.41h-18.89Z"/>
          <path class="cls-2" d="M1478.04,717.58c-5.5,0-9.87-1.65-13.11-4.95-3.24-3.3-4.86-7.71-4.86-13.21v-56.3h-24.94v-15.95h24.94v-29.89h18.89v29.89h26.96v15.95h-26.96v53c0,3.67,1.71,5.5,5.13,5.5h18.89v15.95h-24.94Z"/>
          <path class="cls-2" d="M1554.12,720.15c-6.48,0-12.26-1.1-17.33-3.3-5.07-2.2-9.11-5.44-12.1-9.72-2.99-4.28-4.49-9.48-4.49-15.59s1.5-11.4,4.49-15.5c2.99-4.09,7.09-7.18,12.29-9.26,5.19-2.08,11.09-3.12,17.69-3.12h27.51v-5.87c0-5.25-1.59-9.47-4.77-12.65-3.18-3.18-8.07-4.77-14.68-4.77s-11.43,1.53-14.85,4.59c-3.42,3.05-5.68,7.03-6.78,11.92l-17.61-5.69c1.46-4.89,3.82-9.32,7.06-13.29,3.24-3.97,7.55-7.18,12.93-9.63,5.38-2.44,11.85-3.67,19.44-3.67,11.74,0,20.97,2.99,27.69,8.98,6.72,5.99,10.08,14.49,10.08,25.49v37.23c0,3.67,1.71,5.5,5.14,5.5h7.7v15.77h-14.12c-4.28,0-7.77-1.1-10.45-3.3-2.69-2.2-4.03-5.19-4.03-8.98v-.55h-2.75c-.98,1.83-2.45,3.97-4.4,6.42-1.96,2.45-4.83,4.56-8.62,6.33-3.79,1.77-8.81,2.66-15.04,2.66ZM1556.87,704.56c7.58,0,13.69-2.17,18.34-6.51,4.65-4.34,6.97-10.3,6.97-17.88v-1.84h-26.41c-5.01,0-9.05,1.07-12.1,3.21-3.06,2.14-4.59,5.29-4.59,9.45s1.59,7.46,4.77,9.9c3.18,2.45,7.52,3.67,13.02,3.67Z"/>
          <path class="cls-2" d="M1669.17,720.15c-11.49,0-21.03-2.57-28.61-7.7-7.58-5.13-12.22-12.9-13.93-23.29l17.61-4.22c.98,5.01,2.63,8.99,4.95,11.92,2.32,2.94,5.23,5.01,8.71,6.24,3.48,1.22,7.24,1.83,11.28,1.83,5.99,0,10.61-1.16,13.84-3.48s4.86-5.32,4.86-8.98-1.53-6.36-4.58-8.07c-3.06-1.71-7.58-3.12-13.57-4.22l-6.24-1.1c-6.11-1.1-11.68-2.69-16.68-4.77-5.01-2.08-8.99-4.95-11.92-8.62-2.94-3.67-4.4-8.37-4.4-14.12,0-8.56,3.18-15.19,9.54-19.9,6.35-4.71,14.79-7.06,25.31-7.06s18.49,2.29,25.03,6.87c6.54,4.59,10.79,10.79,12.74,18.61l-17.61,4.95c-1.1-5.5-3.42-9.38-6.97-11.64s-7.95-3.39-13.2-3.39-9.17.95-12.1,2.84c-2.94,1.9-4.4,4.56-4.4,7.98,0,3.67,1.44,6.36,4.31,8.07,2.87,1.71,6.75,2.99,11.64,3.85l6.42,1.1c6.48,1.1,12.41,2.63,17.79,4.58,5.38,1.96,9.63,4.77,12.74,8.44,3.11,3.67,4.68,8.56,4.68,14.67,0,9.05-3.37,16.08-10.09,21.09-6.73,5.01-15.77,7.52-27.14,7.52Z"/>
        </g>
      </g>
      <rect class="cls-1" width="1902.81" height="916.55"/>
    </g>
  </g>
</svg>