<?xml version="1.0" encoding="UTF-8"?>
<svg id="Layer_2" data-name="Layer 2" xmlns="http://www.w3.org/2000/svg" viewBox="0 0 762.2 916.55">
  <defs>
    <style>
      .cls-1 {
        fill: none;
      }

      .cls-2 {
        fill: #f3c623;
      }
    </style>
  </defs>
  <g id="Layer_4" data-name="Layer 4">
    <g>
      <g>
        <path class="cls-2" d="M454.91,589.68v-28.08l37.3-37.3c1.68.46,3.42.75,5.22.85,14.13.82,26.55-10.08,27.51-24.2,1.09-16.22-12.68-29.54-29.04-27.67-11.89,1.36-21.46,10.93-22.81,22.82-.39,3.41-.12,6.72.71,9.8l-18.88,18.88v-74.43l37.29-37.29c2.62.7,5.41,1,8.29.84,13.19-.76,23.91-11.63,24.48-24.84.67-15.3-11.88-27.85-27.18-27.18-13.2.58-24.08,11.29-24.84,24.48-.16,2.88.14,5.67.84,8.29l-18.88,18.88v-71.74c-6.34-9.84-15.3-18.28-26.04-24.62v272.23c0,26.46,9.83,50.64,26.04,69.06,19.16,21.8,47.25,35.56,78.58,35.56,4,0,7.94-.23,11.82-.67-51.06-6.93-90.4-50.7-90.4-103.66ZM499.16,486.13c7.19,0,13.02,5.83,13.02,13.02s-5.83,13.02-13.02,13.02-13.02-5.83-13.02-13.02,5.83-13.02,13.02-13.02ZM499.16,374.87c7.19,0,13.02,5.83,13.02,13.02s-5.83,13.02-13.02,13.02-13.02-5.83-13.02-13.02,5.83-13.02,13.02-13.02Z"/>
        <path class="cls-2" d="M288.82,505.9c.94-3.52,1.16-7.34.5-11.27-1.81-10.8-10.47-19.4-21.28-21.16-17.81-2.91-32.99,12.28-30.07,30.09,1.97,11.99,12.3,21.05,24.44,21.61,2.78.13,5.45-.17,7.98-.87l37.3,37.3v28.08c0,52.96-39.34,96.73-90.4,103.66,3.88.44,7.82.67,11.82.67,31.32,0,59.42-13.76,78.58-35.56,16.22-18.42,26.04-42.6,26.04-69.06v-38.57l-44.92-44.92ZM264.15,512.17c-7.19,0-13.02-5.83-13.02-13.02s5.83-13.02,13.02-13.02,13.02,5.83,13.02,13.02-5.83,13.02-13.02,13.02Z"/>
        <path class="cls-2" d="M307.7,341.78v71.74l-18.88-18.88c.7-2.62,1-5.41.84-8.29-.76-13.19-11.63-23.91-24.84-24.48-15.3-.67-27.85,11.88-27.18,27.18.58,13.2,11.29,24.08,24.48,24.84,2.88.16,5.67-.14,8.29-.84l37.29,37.29v29.14l26.04,26.04v-188.36c-10.75,6.34-19.7,14.78-26.04,24.62ZM264.15,400.91c-7.19,0-13.02-5.83-13.02-13.02s5.83-13.02,13.02-13.02,13.02,5.83,13.02,13.02-5.83,13.02-13.02,13.02Z"/>
        <path class="cls-2" d="M394.94,585.14c-.03-1.11-.05-2.23-.05-3.34v-257.34c7.81-4.51,13.07-12.95,13.07-22.62,0-13.98-10.99-25.4-24.79-26.1-.42-.02-.83-.03-1.25-.03-.45,0-.9.01-1.34.03-13.81.7-24.79,12.12-24.79,26.1,0,9.67,5.26,18.11,13.07,22.62v257.34c0,1.11-.01,2.23-.05,3.34-1.65,62.53-49.61,113.53-110.85,119.94,4.3.45,8.66.68,13.07.68,39.76,0,75.16-18.73,97.83-47.83,4.99-6.4,9.36-13.3,13.02-20.61,3.66,7.32,8.03,14.22,13.02,20.61,22.67,29.1,58.07,47.83,97.83,47.83,4.41,0,8.77-.23,13.07-.68-61.24-6.41-109.2-57.41-110.85-119.94ZM381.8,315.51c-6.92-.31-12.44-6.01-12.44-13.01s5.53-12.71,12.44-13.01c.22,0,.44-.01.67-.01.19,0,.39,0,.58.01,6.92.31,12.44,6.01,12.44,13.01s-5.53,12.71-12.44,13.01c-.19.01-.38.01-.58.01-.23,0-.45-.01-.67-.01Z"/>
        <path class="cls-2" d="M414.84,149.34c-7.29-15.8-18.89-29.2-33.28-38.71-14.4,9.51-26.01,22.93-33.3,38.75-5.46,11.83-8.5,25.01-8.5,38.91,0,29.4,13.63,55.6,34.92,72.65,2.21,1.77,4.51,3.44,6.88,5.01,2.34-1.54,4.62-3.19,6.81-4.95,21.33-17.04,35-43.28,35-72.71,0-13.92-3.06-27.11-8.53-38.95ZM381.49,252.81c-7.89-11.09-12.54-24.64-12.54-39.28s4.64-28.2,12.54-39.28c7.89,11.09,12.54,24.64,12.54,39.28s-4.64,28.2-12.54,39.28Z"/>
        <path class="cls-2" d="M510.11,205.09c12.99-4.78,27.05-5.8,40.49-3.05,2.75,13.45,1.73,27.53-3.06,40.53-3.59,9.73-9.29,18.86-17.1,26.67-16.54,16.54-38.95,23.61-60.52,21.22-2.24-.25-4.47-.6-6.69-1.06-.45-2.18-.8-4.4-1.04-6.61-2.41-21.59,4.66-44.04,21.21-60.59,7.83-7.83,16.97-13.53,26.71-17.12ZM470.67,282.06c10.68-1.8,20.91-6.81,29.15-15.05,8.24-8.24,13.25-18.47,15.05-29.15-10.68,1.8-20.91,6.81-29.15,15.05-8.24,8.24-13.25,18.47-15.05,29.15Z"/>
        <path class="cls-2" d="M592.31,291.23c13.78-1.26,27.63,1.4,39.9,7.53-.82,13.71-5.45,27.04-13.45,38.36-5.98,8.47-13.85,15.81-23.42,21.34-20.25,11.69-43.73,12.72-63.95,4.84-2.1-.82-4.16-1.74-6.19-2.75.13-2.23.36-4.45.7-6.66,3.26-21.48,15.9-41.33,36.17-53.04,9.59-5.54,19.89-8.68,30.23-9.62ZM534.29,355.36c10.78,1.03,21.96-1.16,32.05-6.99s17.58-14.41,22.08-24.26c-10.78-1.03-21.96,1.16-32.05,6.99-10.09,5.82-17.58,14.41-22.08,24.26Z"/>
        <path class="cls-2" d="M614.42,417.87c13.64,2.35,26.33,8.5,36.59,17.6-4.34,13.03-12.27,24.71-22.92,33.57-7.97,6.63-17.47,11.69-28.15,14.55-22.59,6.05-45.53.97-63.02-11.88-1.81-1.33-3.57-2.75-5.26-4.26.7-2.12,1.5-4.21,2.4-6.25,8.7-19.9,26.05-35.81,48.67-41.87,10.69-2.87,21.46-3.23,31.69-1.47ZM541.78,464.79c10.14,3.78,21.52,4.56,32.77,1.54,11.25-3.01,20.71-9.37,27.6-17.72-10.14-3.78-21.52-4.56-32.77-1.54-11.25,3.01-20.71,9.37-27.6,17.72Z"/>
        <path class="cls-2" d="M253.19,205.12c-12.99-4.78-27.05-5.8-40.49-3.05-2.75,13.45-1.73,27.53,3.06,40.53,3.59,9.73,9.29,18.86,17.1,26.67,16.54,16.54,38.95,23.61,60.52,21.22,2.24-.25,4.47-.6,6.69-1.06.45-2.18.8-4.4,1.04-6.61,2.41-21.59-4.66-44.04-21.21-60.59-7.83-7.83-16.97-13.53-26.71-17.12ZM292.64,282.08c-10.68-1.8-20.91-6.81-29.15-15.05-8.24-8.24-13.25-18.47-15.05-29.15,10.68,1.8,20.91,6.81,29.15,15.05,8.24,8.24,13.25,18.47,15.05,29.15Z"/>
        <path class="cls-2" d="M171,291.25c-13.78-1.26-27.63,1.4-39.9,7.53.82,13.71,5.45,27.04,13.45,38.36,5.98,8.47,13.85,15.81,23.42,21.34,20.25,11.69,43.73,12.72,63.95,4.84,2.1-.82,4.16-1.74,6.19-2.75-.13-2.23-.36-4.45-.7-6.66-3.26-21.48-15.9-41.33-36.17-53.04-9.59-5.54-19.89-8.68-30.23-9.62ZM229.02,355.38c-10.78,1.03-21.96-1.16-32.05-6.99-10.09-5.82-17.58-14.41-22.08-24.26,10.78-1.03,21.96,1.16,32.05,6.99,10.09,5.82,17.58,14.41,22.08,24.26Z"/>
        <path class="cls-2" d="M148.89,417.89c-13.64,2.35-26.33,8.5-36.59,17.6,4.34,13.03,12.27,24.71,22.92,33.57,7.97,6.63,17.47,11.69,28.15,14.55,22.59,6.05,45.53.97,63.02-11.88,1.81-1.33,3.57-2.75,5.26-4.26-.7-2.12-1.5-4.21-2.4-6.25-8.7-19.9-26.05-35.81-48.67-41.87-10.69-2.87-21.46-3.23-31.69-1.47ZM221.53,464.82c-10.14,3.78-21.52,4.56-32.77,1.54-11.25-3.01-20.71-9.37-27.6-17.72,10.14-3.78,21.52-4.56,32.77-1.54,11.25,3.01,20.71,9.37,27.6,17.72Z"/>
        <g>
          <path class="cls-2" d="M454.6,787.2c-.17-1.97-.91-3.43-2.21-4.38s-2.96-1.34-5-1.16l-8.6.76,1.15,13.02,8.6-.76c1.99-.18,3.55-.85,4.68-2.02,1.13-1.17,1.61-2.74,1.44-4.7l-.07-.76Z"/>
          <path class="cls-2" d="M451,770.58c1.13-1.17,1.62-2.69,1.45-4.55l-.07-.76c-.17-1.92-.9-3.34-2.2-4.27-1.29-.93-2.91-1.31-4.86-1.13l-8.47.75,1.12,12.72,8.47-.75c1.9-.17,3.41-.84,4.54-2Z"/>
          <path class="cls-2" d="M619.81,771.46l-16.18-63.46c-2.74,8.05-120.98,32.32-218.89,32.32-105.33,0-220.16-26.35-224.15-34.22l-16.18,63.34c-1.25,4.88,1.65,9.82,6.8,11.66,67.86,24.25,157.56,37.59,233.53,37.59s161.8-12.58,228.17-35.53c5.2-1.8,8.15-6.78,6.9-11.69ZM336.83,768.27l-.23,2.27-9.01-.92.23-2.27c.21-2.02.02-3.68-.57-4.99-.59-1.31-1.52-2.32-2.8-3.04-1.28-.72-2.85-1.17-4.69-1.36-2.77-.28-4.88.07-6.31,1.07-1.43,1-2.25,2.48-2.45,4.45-.13,1.31.06,2.45.59,3.42.53.97,1.39,1.82,2.57,2.56,1.19.73,2.72,1.43,4.62,2.08l1.56.54c3.38,1.16,6.29,2.5,8.72,4.03,2.44,1.52,4.26,3.39,5.48,5.6,1.22,2.21,1.67,4.93,1.33,8.16-.33,3.23-1.37,5.98-3.12,8.27-1.75,2.29-4.07,3.99-6.96,5.09-2.89,1.1-6.21,1.46-9.95,1.08-3.74-.38-6.97-1.45-9.68-3.21s-4.74-4.08-6.08-6.96-1.81-6.25-1.42-10.08l.22-2.12,9.01.92-.22,2.12c-.33,3.17.33,5.65,1.97,7.42,1.64,1.77,4,2.82,7.1,3.13,3.14.32,5.56-.12,7.24-1.32,1.69-1.2,2.64-2.86,2.86-4.98.15-1.46-.11-2.69-.78-3.67-.67-.99-1.7-1.84-3.1-2.57-1.4-.73-3.11-1.45-5.13-2.17l-1.56-.54c-3.24-1.15-5.99-2.46-8.24-3.94-2.25-1.48-3.91-3.29-4.97-5.44-1.06-2.15-1.43-4.83-1.1-8.06.33-3.22,1.32-5.91,2.96-8.06,1.64-2.15,3.81-3.71,6.5-4.68,2.69-.97,5.77-1.28,9.23-.92,3.46.36,6.48,1.31,9.05,2.88,2.57,1.56,4.5,3.7,5.79,6.4,1.29,2.7,1.73,5.97,1.34,9.8ZM399.53,773.06l-9.06-.06v-.76c.03-3.14-.76-5.73-2.34-7.77-1.59-2.04-4.03-3.07-7.33-3.09-3.25-.02-5.81,1.05-7.68,3.21-1.87,2.17-2.82,5.12-2.85,8.87l-.09,13.07c-.03,3.7.88,6.65,2.73,8.87s4.39,3.34,7.64,3.36c3.3.02,5.75-.99,7.37-3.03,1.62-2.04,2.43-4.61,2.46-7.7v-1.37s9.07.06,9.07.06v1.06c-.05,6.23-1.72,11.12-5.02,14.67s-7.94,5.3-13.93,5.26c-6.04-.04-10.81-1.91-14.31-5.61-3.5-3.7-5.23-8.96-5.19-15.8l.09-12.77c.05-6.84,1.85-12.08,5.4-15.73,3.55-3.65,8.35-5.45,14.39-5.41,5.99.04,10.61,1.86,13.86,5.45,3.25,3.59,4.85,8.51,4.81,14.74v.46ZM462.73,796.05c-1.06,2.21-2.65,3.96-4.74,5.26-2.1,1.3-4.61,2.09-7.52,2.34l-25.26,2.23-.78-8.78,6.38-.56-3.13-35.42-6.38.56-.78-8.78,24.98-2.21c2.96-.26,5.59.05,7.88.94,2.29.89,4.14,2.28,5.54,4.16,1.4,1.89,2.23,4.22,2.47,6.99l.07.76c.21,2.42-.03,4.44-.72,6.05-.7,1.61-1.58,2.89-2.63,3.82-1.06.93-2.08,1.62-3.07,2.06l.12,1.36c1.04.21,2.2.68,3.48,1.41,1.28.73,2.41,1.83,3.41,3.32.99,1.49,1.6,3.5,1.83,6.02l.07.76c.26,2.93-.14,5.49-1.21,7.7Z"/>
        </g>
        <path class="cls-2" d="M679.22,744.15s-4.94-11.72-35.77-31.03c0,0,14.07-26.56,26.36-31.7-53-19.82-102.65,4.05-100.51,19.14,1.49,9.36,30.82-6.33,36.89-.84,5.59,5.06,18.04,58.5,18.04,58.5,0,0,22.3-18.53,54.99-14.06Z"/>
        <path class="cls-2" d="M84.09,744.15s4.94-11.72,35.77-31.03c0,0-14.07-26.56-26.36-31.7,53-19.82,102.65,4.05,100.51,19.14-1.49,9.36-30.82-6.33-36.89-.84-5.59,5.06-18.04,58.5-18.04,58.5,0,0-22.3-18.53-54.99-14.06Z"/>
      </g>
      <rect class="cls-1" width="762.2" height="916.55"/>
    </g>
  </g>
</svg>