<?xml version="1.0" encoding="UTF-8"?>
<svg id="Layer_1" data-name="Layer 1" xmlns="http://www.w3.org/2000/svg" xmlns:xlink="http://www.w3.org/1999/xlink" viewBox="0 0 708.66 992.13">
  <defs>
    <style>
      .cls-1 {
        fill: none;
      }

      .cls-2 {
        fill: #133054;
      }

      .cls-3 {
        fill: #fff;
      }

      .cls-4 {
        fill: #f2c622;
      }

      .cls-5 {
        clip-path: url(#clippath);
      }
    </style>
    <clipPath id="clippath">
      <rect class="cls-1" x="0" width="708.66" height="992.13"/>
    </clipPath>
  </defs>
  <g class="cls-5">
    <rect class="cls-3" width="708.66" height="992.13"/>
    <g>
      <path class="cls-2" d="M0,0h708.66l-28.91,109.53c-1.08,4.09-4.78,6.94-9.01,6.94H39.22c-4.19,0-7.87-2.8-8.98-6.84L0,0h0Z"/>
      <g>
        <g id="daun">
          <path class="cls-4" d="M675.07,32.44c-3.07-6.64-7.94-12.28-14-16.28-6.06,4-10.94,9.65-14.01,16.3-2.3,4.98-3.58,10.52-3.58,16.37,0,12.37,5.73,23.39,14.69,30.56.93.74,1.9,1.45,2.9,2.11.99-.65,1.94-1.34,2.86-2.08,8.97-7.17,14.72-18.2,14.72-30.58,0-5.85-1.29-11.4-3.59-16.39ZM661.05,75.96c-3.32-4.66-5.27-10.36-5.27-16.52,0-6.16,1.95-11.86,5.27-16.52,3.32,4.66,5.27,10.36,5.27,16.52s-1.95,11.86-5.27,16.52Z"/>
        </g>
        <g id="daun-2" data-name="daun">
          <path class="cls-4" d="M611.16,81.46c-5.26,2.43-9.73,6.29-12.89,11.09,3.17,4.8,7.64,8.67,12.91,11.1,3.94,1.82,8.33,2.83,12.96,2.83,9.79,0,18.52-4.54,24.2-11.63.59-.74,1.15-1.5,1.67-2.29-.51-.78-1.06-1.54-1.65-2.27-5.68-7.11-14.42-11.66-24.22-11.66-4.64,0-9.03,1.02-12.98,2.84ZM645.62,92.57c-3.69,2.63-8.21,4.18-13.09,4.18s-9.39-1.55-13.09-4.18c3.69-2.63,8.21-4.18,13.09-4.18s9.39,1.55,13.09,4.18Z"/>
        </g>
        <path class="cls-4" d="M661.08,85.45c-3.91,0-7.07,3.17-7.07,7.07s3.17,7.07,7.07,7.07,7.07-3.17,7.07-7.07-3.17-7.07-7.07-7.07ZM661.08,96.7c-2.31,0-4.18-1.87-4.18-4.18s1.87-4.18,4.18-4.18,4.18,1.87,4.18,4.18-1.87,4.18-4.18,4.18Z"/>
      </g>
      <g>
        <g id="daun-3" data-name="daun">
          <path class="cls-4" d="M33.59,32.44c3.07-6.64,7.94-12.28,14-16.28,6.06,4,10.94,9.65,14.01,16.3,2.3,4.98,3.58,10.52,3.58,16.37,0,12.37-5.73,23.39-14.69,30.56-.93.74-1.9,1.45-2.9,2.11-.99-.65-1.94-1.34-2.86-2.08-8.97-7.17-14.72-18.2-14.72-30.58,0-5.85,1.29-11.4,3.59-16.39ZM47.61,75.96c3.32-4.66,5.27-10.36,5.27-16.52,0-6.16-1.95-11.86-5.27-16.52-3.32,4.66-5.27,10.36-5.27,16.52s1.95,11.86,5.27,16.52Z"/>
        </g>
        <g id="daun-4" data-name="daun">
          <path class="cls-4" d="M97.51,81.46c5.26,2.43,9.73,6.29,12.89,11.09-3.17,4.8-7.64,8.67-12.91,11.1-3.94,1.82-8.33,2.83-12.96,2.83-9.79,0-18.52-4.54-24.2-11.63-.59-.74-1.15-1.5-1.67-2.29.51-.78,1.06-1.54,1.65-2.27,5.68-7.11,14.42-11.66,24.22-11.66,4.64,0,9.03,1.02,12.98,2.84ZM63.04,92.57c3.69,2.63,8.21,4.18,13.09,4.18s9.39-1.55,13.09-4.18c-3.69-2.63-8.21-4.18-13.09-4.18s-9.39,1.55-13.09,4.18Z"/>
        </g>
        <path class="cls-4" d="M47.59,85.45c3.91,0,7.07,3.17,7.07,7.07s-3.17,7.07-7.07,7.07-7.07-3.17-7.07-7.07,3.17-7.07,7.07-7.07ZM47.59,96.7c2.31,0,4.18-1.87,4.18-4.18s-1.87-4.18-4.18-4.18-4.18,1.87-4.18,4.18,1.87,4.18,4.18,4.18Z"/>
      </g>
    </g>
  </g>
</svg>