<?xml version="1.0" encoding="UTF-8"?>
<svg id="Layer_1" data-name="Layer 1" xmlns="http://www.w3.org/2000/svg" xmlns:xlink="http://www.w3.org/1999/xlink" viewBox="0 0 708.66 992.13">
  <defs>
    <style>
      .cls-1 {
        fill: none;
      }

      .cls-2 {
        fill: #231f20;
      }

      .cls-3, .cls-4 {
        font-size: 9px;
      }

      .cls-5 {
        font-family: OpenSans-SemiBold, 'Open Sans';
        font-weight: 600;
      }

      .cls-5, .cls-6 {
        font-size: 12px;
      }

      .cls-7 {
        fill: #fff;
      }

      .cls-8, .cls-4 {
        font-family: OpenSans-Regular, 'Open Sans';
      }

      .cls-9 {
        opacity: .3;
      }

      .cls-10 {
        fill: #f2c622;
      }

      .cls-11 {
        clip-path: url(#clippath);
      }
    </style>
    <clipPath id="clippath">
      <rect class="cls-1" x="0" width="708.66" height="992.13"/>
    </clipPath>
  </defs>
  <g class="cls-11">
    <g>
      <rect class="cls-7" width="708.66" height="992.13"/>
      <g>
        <g>
          <g>
            <g>
              <path class="cls-10" d="M483.9,98.99v-3.96l5.26-5.26c.3.08.62.13.95.13,2.03,0,3.67-1.64,3.67-3.67s-1.64-3.67-3.67-3.67-3.67,1.64-3.67,3.67c0,.33.04.65.12.95l-2.66,2.66v-10.5l5.26-5.26c.3.08.62.12.95.12,2.03,0,3.67-1.64,3.67-3.67s-1.64-3.67-3.67-3.67-3.67,1.64-3.67,3.67c0,.33.04.65.12.95l-2.66,2.66v-10.12c-.89-1.39-2.16-2.58-3.67-3.47v38.39c0,3.73,1.39,7.14,3.67,9.74,2.7,3.07,6.66,5.01,11.08,5.01.56,0,1.12-.03,1.67-.09-7.2-.98-12.75-7.15-12.75-14.62ZM490.11,84.39c1.01,0,1.84.82,1.84,1.84s-.82,1.84-1.84,1.84-1.84-.82-1.84-1.84.82-1.84,1.84-1.84ZM490.11,68.7c1.01,0,1.84.82,1.84,1.84s-.82,1.84-1.84,1.84-1.84-.82-1.84-1.84.82-1.84,1.84-1.84Z"/>
              <path class="cls-10" d="M460.52,87.18c.08-.3.12-.62.12-.95,0-2.03-1.64-3.67-3.67-3.67s-3.67,1.64-3.67,3.67,1.64,3.67,3.67,3.67c.33,0,.65-.04.95-.13l5.26,5.26v3.96c0,7.47-5.55,13.64-12.75,14.62.55.06,1.1.09,1.67.09,4.42,0,8.38-1.94,11.08-5.01,2.29-2.6,3.67-6.01,3.67-9.74v-5.44l-6.34-6.34ZM456.97,88.06c-1.01,0-1.84-.82-1.84-1.84s.82-1.84,1.84-1.84,1.84.82,1.84,1.84-.82,1.84-1.84,1.84Z"/>
              <path class="cls-10" d="M463.18,64.03v10.12l-2.66-2.66c.08-.3.12-.62.12-.95,0-2.03-1.64-3.67-3.67-3.67s-3.67,1.64-3.67,3.67,1.64,3.67,3.67,3.67c.33,0,.65-.04.95-.12l5.26,5.26v4.11l3.67,3.67v-26.56c-1.52.89-2.78,2.08-3.67,3.47ZM456.97,72.37c-1.01,0-1.84-.82-1.84-1.84s.82-1.84,1.84-1.84,1.84.82,1.84,1.84-.82,1.84-1.84,1.84Z"/>
              <path class="cls-10" d="M475.49,98.31c0-.16,0-.31,0-.47v-36.17c1.1-.63,1.84-1.82,1.84-3.18,0-1.96-1.54-3.57-3.48-3.67-.06,0-.12,0-.18,0-.06,0-.13,0-.19,0-1.94.1-3.48,1.7-3.48,3.67,0,1.36.74,2.55,1.84,3.18v36.17c0,.16,0,.31,0,.47-.23,8.79-6.97,15.96-15.58,16.86.6.06,1.22.1,1.84.1,5.59,0,10.56-2.63,13.75-6.72.7-.9,1.32-1.87,1.83-2.9.51,1.03,1.13,2,1.83,2.9,3.19,4.09,8.16,6.72,13.75,6.72.62,0,1.23-.03,1.84-.1-8.61-.9-15.35-8.07-15.58-16.86ZM473.56,60.33c-.98-.04-1.76-.85-1.76-1.83s.78-1.79,1.76-1.83c.03,0,.06,0,.09,0,.03,0,.05,0,.08,0,.98.04,1.76.85,1.76,1.83s-.78,1.79-1.76,1.83c-.03,0-.05,0-.08,0-.03,0-.06,0-.09,0Z"/>
            </g>
            <g>
              <g id="daun">
                <path class="cls-10" d="M478.22,36.89c-1.03-2.23-2.66-4.12-4.69-5.46-2.03,1.34-3.67,3.23-4.7,5.46-.77,1.67-1.2,3.53-1.2,5.49,0,4.15,1.92,7.84,4.93,10.25.31.25.64.49.97.71.33-.22.65-.45.96-.7,3.01-2.4,4.94-6.1,4.94-10.25,0-1.96-.43-3.82-1.2-5.49ZM473.52,51.48c-1.11-1.56-1.77-3.48-1.77-5.54s.65-3.98,1.77-5.54c1.11,1.56,1.77,3.48,1.77,5.54s-.65,3.98-1.77,5.54Z"/>
              </g>
              <g id="daun-2" data-name="daun">
                <path class="cls-10" d="M491.66,44.76c1.83-.67,3.82-.82,5.71-.43.39,1.9.24,3.88-.43,5.72-.51,1.37-1.31,2.66-2.41,3.76-2.33,2.33-5.49,3.33-8.53,2.99-.32-.04-.63-.08-.94-.15-.06-.31-.11-.62-.15-.93-.34-3.04.66-6.21,2.99-8.55,1.1-1.1,2.39-1.91,3.77-2.41ZM486.09,55.61c1.51-.25,2.95-.96,4.11-2.12s1.87-2.61,2.12-4.11c-1.51.25-2.95.96-4.11,2.12s-1.87,2.61-2.12,4.11Z"/>
              </g>
              <g id="daun-3" data-name="daun">
                <path class="cls-10" d="M503.25,56.9c1.94-.18,3.9.2,5.63,1.06-.12,1.93-.77,3.81-1.9,5.41-.84,1.19-1.95,2.23-3.3,3.01-2.86,1.65-6.17,1.79-9.02.68-.3-.12-.59-.24-.87-.39.02-.31.05-.63.1-.94.46-3.03,2.24-5.83,5.1-7.48,1.35-.78,2.81-1.22,4.26-1.36ZM495.07,65.95c1.52.14,3.1-.16,4.52-.99s2.48-2.03,3.11-3.42c-1.52-.14-3.1.16-4.52.99s-2.48,2.03-3.11,3.42Z"/>
              </g>
              <g id="daun-4" data-name="daun">
                <path class="cls-10" d="M506.37,74.76c1.92.33,3.71,1.2,5.16,2.48-.61,1.84-1.73,3.48-3.23,4.73-1.12.94-2.46,1.65-3.97,2.05-3.19.85-6.42.14-8.89-1.67-.26-.19-.5-.39-.74-.6.1-.3.21-.59.34-.88,1.23-2.81,3.67-5.05,6.86-5.9,1.51-.4,3.03-.46,4.47-.21ZM496.12,81.38c1.43.53,3.03.64,4.62.22,1.59-.43,2.92-1.32,3.89-2.5-1.43-.53-3.03-.64-4.62-.22-1.59.43-2.92,1.32-3.89,2.5Z"/>
              </g>
              <g id="daun-5" data-name="daun">
                <path class="cls-10" d="M455.42,44.76c-1.83-.67-3.82-.82-5.71-.43-.39,1.9-.24,3.88.43,5.72.51,1.37,1.31,2.66,2.41,3.76,2.33,2.33,5.49,3.33,8.53,2.99.32-.04.63-.08.94-.15.06-.31.11-.62.15-.93.34-3.04-.66-6.21-2.99-8.55-1.1-1.1-2.39-1.91-3.77-2.41ZM460.99,55.61c-1.51-.25-2.95-.96-4.11-2.12s-1.87-2.61-2.12-4.11c1.51.25,2.95.96,4.11,2.12s1.87,2.61,2.12,4.11Z"/>
              </g>
              <g id="daun-6" data-name="daun">
                <path class="cls-10" d="M443.83,56.91c-1.94-.18-3.9.2-5.63,1.06.12,1.93.77,3.81,1.9,5.41.84,1.19,1.95,2.23,3.3,3.01,2.86,1.65,6.17,1.79,9.02.68.3-.12.59-.24.87-.39-.02-.31-.05-.63-.1-.94-.46-3.03-2.24-5.83-5.1-7.48-1.35-.78-2.81-1.22-4.26-1.36ZM452.02,65.95c-1.52.14-3.1-.16-4.52-.99s-2.48-2.03-3.11-3.42c1.52-.14,3.1.16,4.52.99s2.48,2.03,3.11,3.42Z"/>
              </g>
              <g id="daun-7" data-name="daun">
                <path class="cls-10" d="M440.71,74.77c-1.92.33-3.71,1.2-5.16,2.48.61,1.84,1.73,3.48,3.23,4.73,1.12.94,2.46,1.65,3.97,2.05,3.19.85,6.42.14,8.89-1.67.26-.19.5-.39.74-.6-.1-.3-.21-.59-.34-.88-1.23-2.81-3.67-5.05-6.86-5.9-1.51-.4-3.03-.46-4.47-.21ZM450.96,81.38c-1.43.53-3.03.64-4.62.22s-2.92-1.32-3.89-2.5c1.43-.53,3.03-.64,4.62-.22,1.59.43,2.92,1.32,3.89,2.5Z"/>
              </g>
            </g>
          </g>
          <g>
            <path class="cls-10" d="M529.78,52.39c-1.52,0-2.86-.27-4.03-.81-1.17-.54-2.09-1.33-2.75-2.37-.66-1.05-.99-2.32-.99-3.81v-.72h3.08v.72c0,1.42.43,2.49,1.28,3.2.85.71,1.99,1.07,3.41,1.07s2.52-.3,3.25-.91,1.09-1.39,1.09-2.35c0-.63-.17-1.15-.52-1.55-.35-.4-.83-.72-1.47-.96s-1.39-.47-2.27-.68l-1.07-.26c-1.29-.31-2.4-.69-3.35-1.14-.95-.45-1.68-1.05-2.2-1.8-.52-.75-.78-1.71-.78-2.88s.29-2.21.88-3.05c.58-.84,1.4-1.5,2.43-1.96s2.25-.69,3.66-.69,2.65.24,3.76.72,1.97,1.19,2.6,2.13.95,2.12.95,3.54v1.04h-3.08v-1.04c0-.86-.18-1.56-.53-2.1s-.85-.93-1.48-1.18c-.63-.25-1.37-.37-2.22-.37-1.23,0-2.18.25-2.86.76-.68.51-1.02,1.21-1.02,2.12,0,.61.15,1.12.45,1.51.3.39.73.72,1.31.96.58.25,1.3.47,2.16.66l1.07.26c1.3.29,2.46.66,3.45,1.11,1,.45,1.78,1.06,2.36,1.83.58.77.86,1.76.86,2.96s-.3,2.26-.91,3.17c-.6.9-1.46,1.61-2.58,2.12-1.11.51-2.43.76-3.94.76Z"/>
            <path class="cls-10" d="M547.17,52.39c-1.42,0-2.68-.29-3.78-.88-1.1-.59-1.97-1.43-2.61-2.52s-.95-2.39-.95-3.89v-.43c0-1.5.32-2.79.95-3.87.63-1.08,1.5-1.92,2.61-2.52,1.1-.6,2.36-.89,3.78-.89s2.69.3,3.8.89,1.99,1.43,2.62,2.52c.63,1.08.95,2.38.95,3.87v.43c0,1.5-.32,2.79-.95,3.89s-1.51,1.93-2.62,2.52c-1.11.58-2.38.88-3.8.88ZM547.17,49.74c1.3,0,2.37-.42,3.18-1.25.82-.83,1.22-1.99,1.22-3.47v-.26c0-1.48-.4-2.63-1.21-3.47s-1.87-1.25-3.2-1.25-2.34.42-3.15,1.25c-.82.83-1.22,1.99-1.22,3.47v.26c0,1.48.41,2.63,1.22,3.47.82.83,1.87,1.25,3.15,1.25Z"/>
            <path class="cls-10" d="M557.97,51.99v-20.15h2.96v20.15h-2.96Z"/>
            <path class="cls-10" d="M570.51,52.25c-1.08,0-2.03-.24-2.88-.72-.84-.48-1.51-1.16-1.99-2.04-.48-.88-.72-1.94-.72-3.17v-8.52h2.96v8.32c0,1.23.31,2.13.92,2.72.61.59,1.47.88,2.56.88,1.21,0,2.18-.41,2.92-1.22.74-.82,1.11-1.99,1.11-3.53v-7.17h2.96v14.19h-2.91v-2.13h-.46c-.27.58-.75,1.12-1.44,1.63-.69.51-1.71.76-3.05.76Z"/>
            <path class="cls-10" d="M588.24,52.39c-1.8,0-3.3-.4-4.49-1.21s-1.92-2.02-2.19-3.66l2.76-.66c.15.79.41,1.41.78,1.87.36.46.82.79,1.37.98s1.14.29,1.77.29c.94,0,1.66-.18,2.17-.55s.76-.83.76-1.41-.24-1-.72-1.27c-.48-.27-1.19-.49-2.13-.66l-.98-.17c-.96-.17-1.83-.42-2.62-.75-.79-.33-1.41-.78-1.87-1.35-.46-.58-.69-1.31-.69-2.22,0-1.34.5-2.38,1.5-3.12,1-.74,2.32-1.11,3.97-1.11s2.9.36,3.93,1.08c1.03.72,1.69,1.69,2,2.92l-2.76.78c-.17-.86-.54-1.47-1.09-1.83s-1.25-.53-2.07-.53-1.44.15-1.9.45-.69.72-.69,1.25c0,.58.23,1,.68,1.27.45.27,1.06.47,1.83.6l1.01.17c1.02.17,1.95.41,2.79.72.84.31,1.51.75,2,1.32.49.58.73,1.34.73,2.3,0,1.42-.53,2.52-1.58,3.31-1.06.79-2.48,1.18-4.26,1.18Z"/>
            <path class="cls-10" d="M598.78,35.87c-.58,0-1.06-.19-1.45-.56-.39-.37-.59-.86-.59-1.45s.2-1.08.59-1.45c.39-.37.88-.56,1.45-.56s1.08.19,1.47.56c.38.37.58.86.58,1.45s-.19,1.08-.58,1.45c-.38.37-.87.56-1.47.56ZM597.28,51.99v-14.19h2.96v14.19h-2.96Z"/>
          </g>
          <g>
            <path class="cls-10" d="M530.01,83.82c-2.46,0-4.4-.69-5.84-2.09-1.44-1.39-2.16-3.4-2.16-6.03v-4.72c0-2.63.72-4.64,2.16-6.03,1.44-1.39,3.39-2.09,5.84-2.09s4.28.67,5.6,2.02c1.31,1.34,1.97,3.18,1.97,5.5v.17h-3.08v-.26c0-1.36-.37-2.48-1.11-3.34s-1.87-1.3-3.38-1.3-2.73.47-3.6,1.4-1.3,2.22-1.3,3.87v4.84c0,1.63.43,2.92,1.3,3.86s2.06,1.41,3.6,1.41,2.64-.44,3.38-1.31c.74-.87,1.11-1.98,1.11-3.32v-.49h3.08v.4c0,2.32-.66,4.16-1.97,5.5-1.31,1.34-3.18,2.01-5.6,2.01Z"/>
            <path class="cls-10" d="M547.5,83.82c-1.44,0-2.7-.3-3.77-.91-1.08-.6-1.91-1.46-2.52-2.56s-.91-2.38-.91-3.84v-.35c0-1.48.3-2.77.89-3.87.59-1.1,1.42-1.96,2.49-2.56s2.3-.91,3.7-.91,2.56.3,3.58.91c1.03.6,1.83,1.44,2.4,2.52s.86,2.33.86,3.77v1.12h-10.91c.04,1.25.46,2.24,1.25,2.98s1.79,1.11,2.98,1.11c1.11,0,1.95-.25,2.52-.75s1-1.07,1.31-1.73l2.45,1.27c-.27.54-.66,1.1-1.17,1.7-.51.6-1.18,1.09-2,1.5-.83.4-1.88.6-3.17.6ZM543.35,74.87h7.86c-.08-1.07-.46-1.91-1.15-2.52s-1.59-.91-2.71-.91-2.02.3-2.72.91-1.13,1.44-1.28,2.52Z"/>
            <path class="cls-10" d="M557.58,83.42v-14.19h2.91v1.67h.46c.23-.59.6-1.03,1.11-1.31s1.14-.42,1.89-.42h1.7v2.68h-1.81c-.96,0-1.75.26-2.36.79-.61.53-.92,1.34-.92,2.43v8.35h-2.96Z"/>
            <path class="cls-10" d="M574.2,83.82c-1.17,0-2.26-.29-3.25-.86s-1.8-1.41-2.4-2.49c-.6-1.08-.91-2.39-.91-3.93v-.43c0-1.52.3-2.82.89-3.92.59-1.09,1.39-1.93,2.39-2.5s2.09-.86,3.28-.86c.92,0,1.69.11,2.32.35.62.23,1.14.52,1.54.88s.71.72.92,1.11h.46v-7.89h2.96v20.15h-2.91v-2.01h-.46c-.36.61-.92,1.17-1.66,1.67-.74.5-1.8.75-3.18.75ZM575.04,81.23c1.29,0,2.35-.41,3.18-1.24.84-.82,1.25-2.01,1.25-3.54v-.26c0-1.52-.41-2.69-1.24-3.51-.83-.83-1.89-1.24-3.2-1.24s-2.32.41-3.15,1.24-1.25,2-1.25,3.51v.26c0,1.54.42,2.72,1.25,3.54.83.83,1.89,1.24,3.15,1.24Z"/>
            <path class="cls-10" d="M590.98,83.82c-1.02,0-1.92-.17-2.72-.52-.8-.35-1.43-.85-1.9-1.53s-.71-1.49-.71-2.45.24-1.79.71-2.43c.47-.64,1.11-1.13,1.93-1.45.82-.33,1.74-.49,2.78-.49h4.32v-.92c0-.82-.25-1.49-.75-1.99-.5-.5-1.27-.75-2.3-.75s-1.79.24-2.33.72-.89,1.1-1.06,1.87l-2.76-.89c.23-.77.6-1.46,1.11-2.09.51-.62,1.18-1.13,2.03-1.51.84-.38,1.86-.58,3.05-.58,1.84,0,3.29.47,4.35,1.41,1.05.94,1.58,2.27,1.58,4v5.84c0,.58.27.86.81.86h1.21v2.48h-2.22c-.67,0-1.22-.17-1.64-.52-.42-.35-.63-.82-.63-1.41v-.09h-.43c-.15.29-.38.62-.69,1.01s-.76.72-1.35.99c-.6.28-1.38.42-2.36.42ZM591.41,81.38c1.19,0,2.15-.34,2.88-1.02.73-.68,1.09-1.62,1.09-2.81v-.29h-4.14c-.79,0-1.42.17-1.9.5-.48.34-.72.83-.72,1.48s.25,1.17.75,1.55c.5.38,1.18.58,2.04.58Z"/>
            <path class="cls-10" d="M609.04,83.82c-1.8,0-3.3-.4-4.49-1.21s-1.92-2.02-2.19-3.66l2.76-.66c.15.79.41,1.41.78,1.87.36.46.82.79,1.37.98s1.14.29,1.77.29c.94,0,1.66-.18,2.17-.55s.76-.83.76-1.41-.24-1-.72-1.27c-.48-.27-1.19-.49-2.13-.66l-.98-.17c-.96-.17-1.83-.42-2.62-.75-.79-.33-1.41-.78-1.87-1.35-.46-.58-.69-1.31-.69-2.22,0-1.34.5-2.38,1.5-3.12,1-.74,2.32-1.11,3.97-1.11s2.9.36,3.93,1.08c1.03.72,1.69,1.69,2,2.92l-2.76.78c-.17-.86-.54-1.47-1.09-1.83s-1.25-.53-2.07-.53-1.44.15-1.9.45-.69.72-.69,1.25c0,.58.23,1,.68,1.27.45.27,1.06.47,1.83.6l1.01.17c1.02.17,1.95.41,2.79.72.84.31,1.51.75,2,1.32.49.58.73,1.34.73,2.3,0,1.42-.53,2.52-1.58,3.31-1.06.79-2.48,1.18-4.26,1.18Z"/>
          </g>
          <g>
            <path class="cls-10" d="M522.01,114.85v-2.82h2.76v-14.91h-2.76v-2.82h10.42c1.23,0,2.31.21,3.23.63.92.42,1.64,1.02,2.16,1.79.52.77.78,1.69.78,2.74v.29c0,.94-.18,1.71-.53,2.32-.35.61-.78,1.08-1.28,1.41-.5.33-.97.57-1.42.7v.47c.45.12.93.35,1.45.69.52.34.96.82,1.32,1.42.36.61.54,1.4.54,2.38v.29c0,1.14-.26,2.1-.79,2.91s-1.26,1.42-2.19,1.85c-.93.43-2,.65-3.21.65h-10.48ZM527.96,103.05h4.14c1,0,1.8-.25,2.41-.75.61-.5.91-1.18.91-2.04v-.29c0-.86-.3-1.54-.89-2.04-.6-.5-1.4-.75-2.42-.75h-4.14v5.87ZM527.96,111.97h4.14c1.06,0,1.89-.25,2.49-.76s.91-1.21.91-2.11v-.26c0-.9-.3-1.6-.89-2.11-.6-.51-1.43-.76-2.51-.76h-4.14v6.02Z"/>
            <path class="cls-10" d="M548.81,115.26c-1.47,0-2.75-.31-3.84-.92-1.1-.62-1.95-1.49-2.57-2.61s-.92-2.43-.92-3.92v-.35c0-1.51.3-2.82.91-3.95.61-1.12,1.45-2,2.54-2.61s2.34-.92,3.77-.92,2.61.31,3.65.92c1.05.62,1.86,1.47,2.45,2.57s.88,2.38.88,3.84v1.14h-11.12c.04,1.27.46,2.28,1.28,3.04s1.82,1.13,3.04,1.13c1.13,0,1.99-.25,2.57-.76s1.02-1.1,1.34-1.76l2.49,1.29c-.27.55-.67,1.13-1.19,1.73-.52.61-1.2,1.12-2.04,1.53-.84.41-1.92.62-3.23.62ZM544.58,106.13h8.01c-.08-1.1-.47-1.95-1.17-2.57s-1.62-.92-2.76-.92-2.06.31-2.77.92-1.15,1.47-1.31,2.57Z"/>
            <path class="cls-10" d="M559.09,114.85v-14.47h2.96v1.7h.47c.23-.61.61-1.05,1.13-1.34s1.16-.43,1.92-.43h1.73v2.73h-1.85c-.98,0-1.78.27-2.41.81-.63.54-.94,1.37-.94,2.48v8.51h-3.02Z"/>
            <path class="cls-10" d="M570.15,114.85v-20.55h3.02v11.71h.47l5.69-5.64h4.02l-7.31,7.02,7.54,7.45h-3.99l-5.96-6.02h-.47v6.02h-3.02Z"/>
            <path class="cls-10" d="M591.74,115.11c-1.1,0-2.07-.25-2.93-.73-.86-.49-1.54-1.18-2.03-2.08-.49-.9-.73-1.98-.73-3.23v-8.69h3.02v8.48c0,1.25.31,2.18.94,2.77.63.6,1.5.9,2.61.9,1.23,0,2.23-.42,2.98-1.25.75-.83,1.13-2.03,1.13-3.6v-7.31h3.02v14.47h-2.96v-2.17h-.47c-.27.59-.76,1.14-1.47,1.66-.7.52-1.74.78-3.11.78Z"/>
            <path class="cls-10" d="M608.51,115.26c-1.04,0-1.96-.18-2.77-.53-.81-.35-1.46-.87-1.94-1.56s-.72-1.52-.72-2.5.24-1.82.72-2.48c.48-.66,1.13-1.15,1.97-1.48.83-.33,1.78-.5,2.83-.5h4.4v-.94c0-.84-.25-1.52-.76-2.02-.51-.51-1.29-.76-2.35-.76s-1.83.25-2.38.73-.91,1.12-1.09,1.91l-2.82-.91c.23-.78.61-1.49,1.13-2.13.52-.64,1.21-1.15,2.07-1.54.86-.39,1.9-.59,3.11-.59,1.88,0,3.36.48,4.43,1.44,1.08.96,1.61,2.32,1.61,4.08v5.96c0,.59.27.88.82.88h1.23v2.52h-2.26c-.68,0-1.24-.18-1.67-.53-.43-.35-.65-.83-.65-1.44v-.09h-.44c-.16.29-.39.64-.7,1.03s-.77.73-1.38,1.01c-.61.28-1.41.43-2.41.43ZM608.95,112.76c1.21,0,2.19-.35,2.93-1.04.74-.69,1.12-1.65,1.12-2.86v-.29h-4.23c-.8,0-1.45.17-1.94.51-.49.34-.73.85-.73,1.51s.25,1.19.76,1.58c.51.39,1.2.59,2.08.59Z"/>
            <path class="cls-10" d="M620.78,114.85v-20.55h3.02v20.55h-3.02Z"/>
            <path class="cls-10" d="M629.51,98.41c-.59,0-1.08-.19-1.48-.57-.4-.38-.6-.87-.6-1.48s.2-1.1.6-1.48c.4-.38.89-.57,1.48-.57s1.11.19,1.5.57c.39.38.59.88.59,1.48s-.2,1.1-.59,1.48c-.39.38-.89.57-1.5.57ZM627.98,114.85v-14.47h3.02v14.47h-3.02Z"/>
            <path class="cls-10" d="M640.68,114.85c-.88,0-1.58-.26-2.1-.79-.52-.53-.78-1.23-.78-2.11v-9.01h-3.99v-2.55h3.99v-4.78h3.02v4.78h4.31v2.55h-4.31v8.48c0,.59.27.88.82.88h3.02v2.55h-3.99Z"/>
            <path class="cls-10" d="M652.85,115.26c-1.04,0-1.96-.18-2.77-.53-.81-.35-1.46-.87-1.94-1.56s-.72-1.52-.72-2.5.24-1.82.72-2.48c.48-.66,1.13-1.15,1.97-1.48.83-.33,1.78-.5,2.83-.5h4.4v-.94c0-.84-.25-1.52-.76-2.02-.51-.51-1.29-.76-2.35-.76s-1.83.25-2.38.73-.91,1.12-1.09,1.91l-2.82-.91c.23-.78.61-1.49,1.13-2.13.52-.64,1.21-1.15,2.07-1.54.86-.39,1.9-.59,3.11-.59,1.88,0,3.36.48,4.43,1.44,1.08.96,1.61,2.32,1.61,4.08v5.96c0,.59.27.88.82.88h1.23v2.52h-2.26c-.68,0-1.24-.18-1.67-.53-.43-.35-.65-.83-.65-1.44v-.09h-.44c-.16.29-.39.64-.7,1.03s-.77.73-1.38,1.01c-.61.28-1.41.43-2.41.43ZM653.29,112.76c1.21,0,2.19-.35,2.93-1.04.74-.69,1.12-1.65,1.12-2.86v-.29h-4.23c-.8,0-1.45.17-1.94.51-.49.34-.73.85-.73,1.51s.25,1.19.76,1.58c.51.39,1.2.59,2.08.59Z"/>
            <path class="cls-10" d="M671.27,115.26c-1.84,0-3.37-.41-4.58-1.23s-1.96-2.06-2.23-3.73l2.82-.68c.16.8.42,1.44.79,1.91.37.47.84.8,1.39,1s1.16.29,1.8.29c.96,0,1.7-.19,2.22-.56s.78-.85.78-1.44-.24-1.02-.73-1.29c-.49-.27-1.21-.5-2.17-.68l-1-.18c-.98-.18-1.87-.43-2.67-.76-.8-.33-1.44-.79-1.91-1.38-.47-.59-.7-1.34-.7-2.26,0-1.37.51-2.43,1.53-3.18,1.02-.75,2.37-1.13,4.05-1.13s2.96.37,4.01,1.1c1.05.73,1.73,1.73,2.04,2.98l-2.82.79c-.18-.88-.55-1.5-1.12-1.86s-1.27-.54-2.11-.54-1.47.15-1.94.45-.7.73-.7,1.28c0,.59.23,1.02.69,1.29.46.27,1.08.48,1.86.62l1.03.18c1.04.18,1.99.42,2.85.73.86.31,1.54.76,2.04,1.35.5.59.75,1.37.75,2.35,0,1.45-.54,2.57-1.61,3.38-1.08.8-2.52,1.2-4.34,1.2Z"/>
          </g>
        </g>
        <rect class="cls-1" x="404.12" width="304.54" height="146.69"/>
      </g>
      <g class="cls-9">
        <rect class="cls-1" x="-364.84" y="462.94" width="729.68" height="795.08"/>
        <g id="logo">
          <path class="cls-10" d="M83.14,1065.77v-31.87l42.34-42.34c1.91.52,3.88.85,5.92.97,16.03.93,30.14-11.44,31.22-27.46,1.24-18.41-14.4-33.53-32.96-31.41-13.5,1.54-24.36,12.4-25.89,25.9-.44,3.87-.13,7.63.81,11.12l-21.42,21.42v-84.48l42.32-42.32c2.98.8,6.14,1.14,9.41.95,14.98-.86,27.13-13.2,27.78-28.19.76-17.37-13.49-31.61-30.85-30.85-14.99.65-27.33,12.81-28.19,27.79-.19,3.26.15,6.43.95,9.41l-21.42,21.42v-81.42c-7.2-11.17-17.36-20.74-29.56-27.94v308.97c0,30.04,11.16,57.48,29.56,78.39,21.75,24.74,53.63,40.36,89.18,40.36,4.54,0,9.01-.26,13.42-.76-57.95-7.87-102.6-57.54-102.6-117.65ZM133.37,948.23c8.16,0,14.78,6.62,14.78,14.78s-6.62,14.78-14.78,14.78-14.78-6.62-14.78-14.78,6.62-14.78,14.78-14.78ZM133.37,821.96c8.16,0,14.78,6.62,14.78,14.78s-6.62,14.78-14.78,14.78-14.78-6.62-14.78-14.78,6.62-14.78,14.78-14.78Z"/>
          <path class="cls-10" d="M15.08,1060.61c-.04-1.26-.05-2.53-.05-3.79v-292.07c8.86-5.12,14.83-14.7,14.83-25.68,0-15.86-12.47-28.83-28.14-29.62-.48-.03-.94-.04-1.42-.04-.52,0-1.02.01-1.52.04-15.67.8-28.14,13.76-28.14,29.62,0,10.98,5.97,20.56,14.83,25.68v292.07c0,1.26-.01,2.53-.05,3.79-1.87,70.97-56.31,128.86-125.81,136.13,4.88.52,9.83.77,14.83.77,45.13,0,85.3-21.25,111.03-54.28,5.66-7.26,10.63-15.09,14.78-23.4,4.15,8.31,9.12,16.13,14.78,23.4,25.73,33.03,65.9,54.28,111.03,54.28,5,0,9.96-.26,14.83-.77-69.5-7.27-123.94-65.16-125.81-136.13ZM.17,754.59c-7.85-.35-14.12-6.82-14.12-14.77s6.27-14.42,14.12-14.77c.24,0,.5-.01.76-.01.22,0,.44,0,.66.01,7.85.35,14.12,6.82,14.12,14.77s-6.27,14.42-14.12,14.77c-.22.01-.44.01-.66.01-.26,0-.51-.01-.76-.01Z"/>
          <g id="daun-8" data-name="daun">
            <path class="cls-10" d="M37.67,565.99c-8.28-17.93-21.44-33.15-37.77-43.93-16.35,10.8-29.52,26.03-37.8,43.98-6.19,13.43-9.65,28.39-9.65,44.16,0,33.36,15.47,63.1,39.64,82.46,2.51,2,5.12,3.91,7.81,5.68,2.66-1.75,5.24-3.62,7.72-5.62,24.21-19.34,39.73-49.12,39.73-82.52,0-15.8-3.47-30.77-9.68-44.21ZM-.18,683.42c-8.96-12.58-14.23-27.97-14.23-44.58s5.27-32,14.23-44.58c8.96,12.58,14.23,27.97,14.23,44.58s-5.27,32-14.23,44.58Z"/>
          </g>
          <g id="daun-9" data-name="daun">
            <path class="cls-10" d="M145.8,629.27c14.74-5.43,30.7-6.59,45.96-3.46,3.12,15.27,1.97,31.25-3.48,46-4.07,11.04-10.54,21.4-19.41,30.27-18.77,18.77-44.2,26.79-68.68,24.09-2.54-.28-5.08-.68-7.59-1.2-.51-2.48-.91-4.99-1.19-7.5-2.74-24.5,5.28-49.98,24.08-68.77,8.89-8.89,19.26-15.36,30.31-19.43ZM101.03,716.62c12.12-2.04,23.74-7.73,33.08-17.08,9.35-9.35,15.04-20.97,17.08-33.08-12.12,2.04-23.74,7.73-33.08,17.08-9.35,9.35-15.04,20.97-17.08,33.08Z"/>
          </g>
          <g id="daun-10" data-name="daun">
            <path class="cls-10" d="M239.08,727.03c15.64-1.43,31.36,1.59,45.29,8.55-.94,15.56-6.19,30.69-15.27,43.54-6.79,9.61-15.72,17.94-26.59,24.22-22.99,13.27-49.63,14.44-72.58,5.49-2.38-.93-4.73-1.97-7.02-3.12.15-2.53.41-5.05.8-7.56,3.69-24.38,18.04-46.91,41.05-60.2,10.88-6.28,22.58-9.85,34.31-10.92ZM173.23,799.82c12.23,1.17,24.93-1.32,36.38-7.93,11.45-6.61,19.95-16.36,25.06-27.54-12.23-1.17-24.93,1.32-36.38,7.93-11.45,6.61-19.95,16.36-25.06,27.54Z"/>
          </g>
          <g id="daun-11" data-name="daun">
            <path class="cls-10" d="M264.18,870.76c15.48,2.67,29.88,9.65,41.53,19.98-4.93,14.79-13.92,28.04-26.01,38.1-9.04,7.53-19.83,13.26-31.95,16.51-25.64,6.87-51.68,1.1-71.53-13.48-2.06-1.51-4.06-3.13-5.97-4.83.8-2.4,1.71-4.78,2.73-7.09,9.88-22.59,29.57-40.64,55.23-47.52,12.14-3.25,24.36-3.67,35.97-1.67ZM181.74,924.02c11.51,4.29,24.42,5.17,37.19,1.75,12.77-3.42,23.51-10.64,31.33-20.11-11.51-4.29-24.42-5.17-37.19-1.75-12.77,3.42-23.51,10.64-31.33,20.11Z"/>
          </g>
        </g>
      </g>
      <text class="cls-2" transform="translate(404.84 885.22)"><tspan class="cls-5"><tspan x="0" y="0">PT. Solusi Cerdas Berkualitas</tspan></tspan><tspan class="cls-4"><tspan x="0" y="10.8">Jl. Pramuka No.27, Kemiling Permai</tspan></tspan><tspan class="cls-8"><tspan class="cls-3" x="0" y="25.2">Kec. Kemiling, Kota Bandar Lampung, Lampung 3515</tspan><tspan class="cls-6" x="221.21" y="25.2">8</tspan></tspan></text>
    </g>
  </g>
</svg>